<svg width="212" height="212" viewBox="0 0 212 212" fill="none" xmlns="http://www.w3.org/2000/svg">
<g opacity="0.1">
<path d="M67.263 115.63C94.591 115.63 116.745 93.4758 116.745 66.1478C116.745 38.8197 94.591 16.666 67.263 16.666C39.935 16.666 17.7812 38.8197 17.7812 66.1478C17.7812 93.4758 39.935 115.63 67.263 115.63Z" fill="#3A86FF"/>
<path d="M144.738 115.63C172.066 115.63 194.219 93.4758 194.219 66.1478C194.219 38.8197 172.066 16.666 144.738 16.666C117.41 16.666 95.2559 38.8197 95.2559 66.1478C95.2559 93.4758 117.41 115.63 144.738 115.63Z" fill="#3A86FF"/>
<path d="M67.263 195.335C94.591 195.335 116.745 173.181 116.745 145.853C116.745 118.525 94.591 96.3711 67.263 96.3711C39.935 96.3711 17.7812 118.525 17.7812 145.853C17.7812 173.181 39.935 195.335 67.263 195.335Z" fill="#3A86FF"/>
<path d="M144.738 195.335C172.066 195.335 194.219 173.181 194.219 145.853C194.219 118.525 172.066 96.3711 144.738 96.3711C117.41 96.3711 95.2559 118.525 95.2559 145.853C95.2559 173.181 117.41 195.335 144.738 195.335Z" fill="#3A86FF"/>
<path d="M100.423 158.206C127.751 158.206 149.905 136.052 149.905 108.724C149.905 81.3959 127.751 59.2422 100.423 59.2422C73.0951 59.2422 50.9414 81.3959 50.9414 108.724C50.9414 136.052 73.0951 158.206 100.423 158.206Z" fill="#3A86FF"/>
<path d="M66.9999 109.494C66.9999 131.859 85.1297 149.988 107.494 149.988C129.858 149.988 147.988 131.859 147.988 109.494C147.988 87.1299 129.858 69 107.494 69C85.1297 69 66.9999 87.1299 66.9999 109.494Z" fill="#03EBBF"/>
</g>
</svg>
