<svg width="74" height="65" viewBox="0 0 74 65" fill="none" xmlns="http://www.w3.org/2000/svg">
<g clip-path="url(#clip0_1072_611)">
<path d="M10 37C10 18.64 23.74 3.51 41.5 1.29C40.02 1.11 38.53 1 37 1C17.12 1 1 17.12 1 37C1 56.88 17.12 64 37 64C38.53 64 40.02 63.95 41.5 63.87C23.74 62.83 10 55.36 10 37Z" fill="#84C45B"/>
<path d="M73 37C73 18.64 59.26 3.51004 41.5 1.29004C23.74 3.51004 10 18.64 10 37C10 55.36 23.74 62.83 41.5 63.87C59.26 62.83 73 55.36 73 37Z" fill="#A2E080"/>
<path d="M41.5 1.29004C40.14 1.46004 38.81 1.71004 37.5 2.03004C53.28 5.85004 65 20.05 65 37C65 53.95 53.28 61.61 37.5 63.51C38.81 63.67 40.14 63.79 41.5 63.87C59.26 62.83 73 55.36 73 37C73 18.64 59.26 3.51004 41.5 1.29004Z" fill="#CFF7B5"/>
<path d="M26.6301 30.08C26.4401 30.08 26.2401 30.08 26.0401 30.06C23.1101 29.88 21.0601 28.42 20.0901 27.56C19.6801 27.19 19.6401 26.56 20.0101 26.15C20.3801 25.74 21.0101 25.7 21.4201 26.07C22.1901 26.76 23.8301 27.93 26.1601 28.07C29.4301 28.27 31.6701 26.3 32.2801 25.69C32.6701 25.3 33.3001 25.3 33.6901 25.69C34.0801 26.08 34.0801 26.71 33.6901 27.1C32.9701 27.82 30.4101 30.08 26.6201 30.08H26.6301Z" fill="#261C40"/>
<path d="M51.5109 30.08C51.3209 30.08 51.1209 30.08 50.9209 30.06C47.9909 29.88 45.9409 28.42 44.9709 27.56C44.5609 27.19 44.5209 26.56 44.8909 26.15C45.2609 25.74 45.8909 25.7 46.3009 26.07C47.0709 26.76 48.7109 27.93 51.0409 28.07C54.3109 28.27 56.5509 26.3 57.1609 25.69C57.5509 25.3 58.1809 25.3 58.5709 25.69C58.9609 26.08 58.9609 26.71 58.5709 27.1C57.8509 27.82 55.2809 30.08 51.5009 30.08H51.5109Z" fill="#261C40"/>
<path d="M38.8606 42.8397C38.6706 42.8397 38.4706 42.8397 38.2706 42.8197C35.3406 42.6397 33.2906 41.1797 32.3206 40.3197C31.9106 39.9497 31.8706 39.3197 32.2406 38.9097C32.6106 38.4997 33.2406 38.4597 33.6506 38.8297C34.4206 39.5197 36.0606 40.6897 38.3906 40.8297C41.6706 41.0297 43.9006 39.0597 44.5106 38.4497C44.9006 38.0597 45.5306 38.0597 45.9206 38.4497C46.3106 38.8397 46.3106 39.4697 45.9206 39.8597C45.2006 40.5797 42.6406 42.8397 38.8506 42.8397H38.8606Z" fill="#261C40"/>
<path d="M37 65C13.14 65 0 55.06 0 37C0 16.6 16.6 0 37 0C57.4 0 74 16.6 74 37C74 55.06 60.86 65 37 65ZM37 2C17.7 2 2 17.7 2 37C2 58.49 21.03 63 37 63C52.97 63 72 58.49 72 37C72 17.7 56.3 2 37 2Z" fill="#212640"/>
</g>
<defs>
<clipPath id="clip0_1072_611">
<rect width="74" height="65" fill="white"/>
</clipPath>
</defs>
</svg>
