<svg width="196" height="196" viewBox="0 0 196 196" fill="none" xmlns="http://www.w3.org/2000/svg">
<path d="M172 0H24C10.7452 0 0 10.7452 0 24V172C0 185.255 10.7452 196 24 196H172C185.255 196 196 185.255 196 172V24C196 10.7452 185.255 0 172 0Z" fill="#7378DE" fill-opacity="0.3"/>
<path d="M109.371 149.554C105.975 149.579 102.608 148.929 99.4652 147.642L98.8985 147.39L98.338 147.665C95.6721 148.975 92.7662 149.725 89.7994 149.869C87.8865 149.92 85.9877 149.528 84.2512 148.724C80.1982 146.81 78.2175 142.942 77.3991 140.808L77.0372 139.865L76.021 139.906C75.7273 139.919 75.446 139.928 75.1642 139.937C69.4316 140.038 65.2647 138.541 62.7896 135.506C61.4053 133.742 60.5647 131.613 60.3706 129.379C60.1942 127.719 60.2452 126.043 60.5222 124.397L60.6977 123.334L59.7106 122.894C55.434 120.938 52.6334 118.046 51.3847 114.291C50.3343 110.662 50.4083 106.8 51.597 103.214C52.3605 100.621 53.4234 98.1263 54.7643 95.7794L55.1007 95.1812L54.8387 94.5399C51.0902 85.4143 50.7423 77.5358 53.7774 71.1112C57.4222 63.4576 64.9045 60.2587 67.1101 59.4622L67.5899 59.2849L67.8475 58.8443C73.6779 48.8455 81.4101 46.588 86.8681 46.4568L87.0238 46.4538C90.4042 46.4271 93.7565 47.0705 96.8869 48.3467L97.4786 48.5894L98.0547 48.3115C100.937 46.8229 104.112 45.9861 107.354 45.8603C109.158 45.8281 110.955 46.0915 112.673 46.64C118.615 48.5456 122.152 53.484 123.408 55.5132L123.781 56.1317L124.501 56.1783C129.349 56.5379 132.8 58.1876 134.739 61.087C137.124 64.6482 136.565 69.2022 136.017 71.5907L135.768 72.7032L136.798 73.183C141.011 75.1314 143.772 78.0061 145.019 81.7189C146.074 85.3472 146 89.2105 144.807 92.7958C144.044 95.3886 142.981 97.8836 141.64 100.23L141.299 100.83L141.561 101.472C145.296 110.591 145.648 118.461 142.604 124.881C138.959 132.535 131.477 135.733 129.271 136.531L128.791 136.708L128.533 137.149C122.703 147.148 114.971 149.405 109.513 149.536L109.357 149.539L109.365 149.543L109.371 149.554Z" fill="#9199F2"/>
<path d="M141.557 101.479L141.295 100.838L141.634 100.238C142.975 97.8915 144.038 95.3965 144.802 92.8037C145.994 89.2185 146.068 85.3552 145.014 81.7268C143.767 78.014 141.006 75.1394 136.793 73.1909L135.762 72.7112L136.011 71.5987C136.558 69.2138 137.118 64.6561 134.734 61.095C132.795 58.1969 129.344 56.5471 124.497 56.1857L123.779 56.1336L123.406 55.5152C122.149 53.4878 118.61 48.5482 112.669 46.6475C110.951 46.0991 109.154 45.8359 107.351 45.8682C104.109 45.994 100.934 46.8307 98.0514 48.3193L97.4753 48.5972L96.8836 48.3545C93.7527 47.0783 90.4 46.4351 87.0192 46.4622L86.8635 46.4651C82.3737 46.5615 78.0408 48.1344 74.5348 50.9405C74.7992 50.9247 75.0637 50.9088 75.3112 50.9062L75.467 50.9033C78.8474 50.8766 82.1996 51.5199 85.33 52.7961L85.9218 53.0389L86.4979 52.7609C89.3804 51.2709 92.5553 50.4327 95.7978 50.3057C97.6017 50.2731 99.3988 50.5362 101.118 51.0845C107.06 52.9901 110.596 57.9285 111.852 59.9577L112.225 60.5761L112.943 60.6283C117.791 60.9879 121.242 62.6376 123.181 65.537C125.565 69.0981 125.007 73.6522 124.458 76.0407L124.209 77.1532L125.24 77.6329C129.453 79.5814 132.214 82.4561 133.461 86.1689C134.516 89.7972 134.442 93.6605 133.249 97.2458C132.485 99.8385 131.422 102.334 130.082 104.68L129.742 105.28L130.004 105.921C133.739 115.041 134.091 122.911 131.047 129.33C127.402 136.984 119.92 140.183 117.714 140.98L117.234 141.158L116.977 141.598C115.268 144.635 112.997 147.32 110.286 149.51C115.686 149.189 122.963 146.701 128.531 137.154L128.789 136.713L129.269 136.536C131.473 135.74 138.958 132.543 142.6 124.888C145.644 118.468 145.292 110.598 141.557 101.479Z" fill="#BDC3F4"/>
<path d="M111.164 48.2155L111.756 48.4582L112.332 48.1802C112.966 47.8711 113.604 47.5944 114.231 47.3393C113.732 47.1178 113.222 46.9217 112.703 46.7519C110.984 46.2032 109.186 45.941 107.382 45.9759C106.162 46.0034 104.947 46.148 103.755 46.4078C106.306 46.6366 108.808 47.2448 111.179 48.2121L111.164 48.2155Z" fill="#00275C"/>
<path d="M113.725 147.492L113.159 147.24L112.598 147.515C110.606 148.455 108.498 149.124 106.329 149.505C107.34 149.621 108.359 149.672 109.377 149.657L109.531 149.659C111.821 149.605 114.086 149.17 116.233 148.372C115.385 148.126 114.55 147.833 113.734 147.496L113.725 147.492Z" fill="#00275C"/>
<path d="M91.6561 140.648L91.2941 139.705L90.2779 139.746C89.9842 139.759 89.7029 139.768 89.4211 139.777C83.6886 139.878 79.5216 138.381 77.0465 135.346C75.6622 133.582 74.8217 131.453 74.6275 129.218C74.4543 127.559 74.5082 125.884 74.7878 124.24L74.9633 123.177L73.9725 122.735C69.6959 120.779 66.8954 117.887 65.6466 114.132C64.5962 110.503 64.6702 106.641 65.8589 103.055C66.6225 100.462 67.6854 97.9673 69.0261 95.6204L69.3587 95.0237L69.0966 94.3824C65.3618 85.2628 65.0139 77.3843 68.0541 70.9729C71.6989 63.3193 79.1811 60.1204 81.3871 59.323L81.867 59.1457L82.1245 58.7051C85.8279 52.3711 90.2888 49.1442 94.4515 47.6027C92.0507 46.8923 89.5572 46.5446 87.0537 46.5711L86.8979 46.5741C81.4404 46.7044 73.7094 48.9591 67.8778 58.9607L67.6202 59.4013L67.1404 59.5786C64.9125 60.3761 57.4302 63.575 53.7878 71.2231C50.7354 77.6399 51.0874 85.5093 54.8304 94.6326L55.0924 95.2739L54.7533 95.8731C53.4125 98.22 52.3496 100.715 51.586 103.308C50.3974 106.894 50.3234 110.756 51.3738 114.385C52.6229 118.139 55.4272 121.023 59.7038 122.979L60.6909 123.419L60.5094 124.488C60.2386 126.133 60.1847 127.807 60.3491 129.467C60.5467 131.7 61.3869 133.828 62.7681 135.594C65.2423 138.629 69.4102 140.126 75.1427 140.025C75.4245 140.016 75.7136 140.012 75.9995 139.994L77.0157 139.953L77.3777 140.896C78.1964 143.03 80.1865 146.898 84.2297 148.813C85.9648 149.621 87.8646 150.013 89.7779 149.957C92.4845 149.837 95.1423 149.194 97.6043 148.063C94.8536 146.316 92.759 143.708 91.6478 140.644L91.6561 140.648Z" fill="#5F6DD6"/>
<path d="M84.3538 75.5873C87.8241 71.4441 87.0151 66.0545 86.9797 65.8339C86.9429 65.6093 86.8266 65.4053 86.6519 65.2594C86.4772 65.1134 86.2558 65.0352 86.0282 65.0389C85.9845 65.0396 85.9409 65.0444 85.8981 65.0532C85.649 65.0927 85.4258 65.2293 85.2771 65.433C85.1285 65.6368 85.0667 65.8911 85.1051 66.1403C85.1153 66.1865 85.7874 70.9587 82.8756 74.4034C80.7703 76.8907 77.3088 78.1979 72.5811 78.2831C72.3297 78.2873 72.0903 78.3912 71.9155 78.572C71.7407 78.7528 71.6449 78.9956 71.6491 79.247C71.6534 79.4984 71.7573 79.7378 71.9381 79.9126C72.1188 80.0873 72.3616 80.1831 72.613 80.1789C77.9422 80.0834 81.8862 78.5387 84.3523 75.5955L84.3538 75.5873Z" fill="black"/>
<path d="M125.625 79.0109C125.87 78.9513 126.082 78.7985 126.215 78.585C126.341 78.3687 126.382 78.1132 126.328 77.8687C126.3 77.7471 126.247 77.6323 126.174 77.531C126.101 77.4297 126.009 77.3437 125.903 77.2781C125.795 77.2107 125.675 77.1655 125.55 77.1451C125.425 77.1247 125.297 77.1295 125.173 77.1594C124.493 77.2929 123.801 77.3637 123.108 77.3709C120.871 77.4591 118.665 76.8332 116.808 75.5839C114.149 73.6739 112.573 70.3041 112.134 65.5873C112.106 65.3396 111.983 65.1122 111.792 64.9524C111.601 64.7925 111.355 64.7125 111.106 64.729C110.856 64.7553 110.625 64.8773 110.462 65.0696C110.303 65.2639 110.225 65.5123 110.245 65.7627C110.743 71.0672 112.579 74.888 115.707 77.1241C117.89 78.6131 120.492 79.3647 123.133 79.2692C123.976 79.2607 124.816 79.1695 125.641 78.9972L125.633 79.0146L125.625 79.0109Z" fill="black"/>
<path d="M144.824 92.8259C146.017 89.2406 146.091 85.3773 145.036 81.749C143.793 78.028 141.028 75.1615 136.815 73.213L135.784 72.7333L136.033 71.6208C136.576 69.2218 137.136 64.674 134.754 61.1185C132.816 58.2191 129.366 56.5689 124.518 56.2075L123.801 56.1553L123.428 55.5369C122.183 53.5041 118.64 48.5736 112.69 46.6688C110.971 46.1203 109.173 45.8584 107.368 45.8937C104.126 46.0165 100.951 46.8535 98.0691 48.3448L97.493 48.6227L96.9013 48.38C93.7709 47.1038 90.4187 46.4605 87.0382 46.4872L86.8825 46.4901C81.4249 46.6204 73.6949 48.8755 67.8619 58.8776L67.6043 59.3182L67.1245 59.4955C64.9164 60.2755 57.4259 63.4708 53.7756 71.112C50.7231 77.5289 51.0751 85.3983 54.8181 94.5215L55.0801 95.1628L54.741 95.762C53.4002 98.1089 52.3373 100.604 51.5737 103.197C50.3851 106.783 50.3111 110.645 51.3615 114.274C52.6106 118.028 55.4148 120.912 59.6914 122.868L60.6785 123.307L60.499 124.38C60.2282 126.025 60.1743 127.699 60.3387 129.358C60.5363 131.592 61.3765 133.72 62.7577 135.486C65.2319 138.521 69.3997 140.017 75.1323 139.916C75.4141 139.908 75.7032 139.903 75.9891 139.886L77.0053 139.845L77.3672 140.788C78.186 142.921 80.1761 146.79 84.2193 148.704C85.9544 149.513 87.8542 149.904 89.7675 149.849C92.7349 149.708 95.6415 148.958 98.306 147.645L98.8589 147.387L99.4255 147.639C102.572 148.917 105.939 149.564 109.335 149.543L109.491 149.54C114.948 149.41 122.679 147.155 128.512 137.153L128.769 136.712L129.249 136.535C131.455 135.737 138.946 132.544 142.582 124.885C145.635 118.468 145.283 110.599 141.54 101.476L141.277 100.834L141.617 100.235C142.957 97.8882 144.02 95.3931 144.784 92.8003L144.809 92.8117L144.824 92.8259ZM98.0738 145.707L97.2243 146.09C94.8897 147.206 92.3562 147.847 89.7715 147.975C88.1563 148.024 86.5517 147.7 85.0818 147.028C80.1923 144.727 78.7456 138.9 78.6791 138.634C78.6312 138.421 78.5108 138.23 78.3385 138.095C78.1661 137.961 77.9524 137.889 77.7336 137.894L77.6579 137.902C76.7572 137.984 75.8808 138.036 75.061 138.052C69.9852 138.137 66.3535 136.89 64.2601 134.338C60.6703 129.952 62.727 123.093 62.7539 123.032C62.8241 122.798 62.8025 122.546 62.6935 122.328C62.5846 122.109 62.3964 121.94 62.1673 121.855C57.4302 120.137 54.4036 117.4 53.1729 113.716C50.8763 106.841 55.2763 98.5983 56.683 96.2413L56.8553 95.9479L57.1419 95.7666C59.2676 94.4361 61.6041 93.4766 64.0514 92.9292C65.2875 92.6491 66.5487 92.4941 67.8158 92.4666C72.0279 92.3982 76.0999 93.9788 79.1626 96.8711C79.2552 96.9555 79.3636 97.0207 79.4815 97.0629C79.5994 97.1052 79.7245 97.1236 79.8496 97.1172C79.9747 97.1108 80.0972 97.0796 80.2102 97.0255C80.3232 96.9714 80.4243 96.8955 80.5077 96.802C80.6745 96.6144 80.7617 96.3692 80.7508 96.1184C80.7459 95.9935 80.7154 95.8709 80.6612 95.7582C80.607 95.6455 80.5303 95.5452 80.4357 95.4634C77.0146 92.2433 72.4698 90.4887 67.7724 90.5744C66.3772 90.6069 64.9887 90.7773 63.6271 91.0832C61.6581 91.5377 59.7514 92.2288 57.9485 93.1413L56.5375 93.8503L55.9868 92.3816C53.0111 84.4226 52.8325 77.5756 55.459 72.0194C59.3557 63.7782 68.3788 61.0913 68.4754 61.0587C68.7179 60.9869 68.9231 60.8239 69.0481 60.604C73.3783 52.7519 79.3398 48.649 86.7526 48.4223L87.0426 48.4178C89.9288 48.3941 92.7947 48.9032 95.4961 49.9195L96.4049 50.2596L98.0629 145.753L98.082 145.71L98.0738 145.707ZM121.059 101.783C123.84 104.208 127.397 105.559 131.087 105.592C132.445 105.564 133.791 105.336 135.081 104.913C136.263 104.526 137.393 103.996 138.447 103.336L139.921 102.429L140.513 104.051C143.364 111.852 143.493 118.584 140.909 124.067C137.013 132.308 127.99 134.995 127.893 135.027C127.65 135.099 127.445 135.262 127.32 135.482C122.99 143.334 117.028 147.437 109.616 147.664L109.305 147.669C106.425 147.697 103.565 147.188 100.872 146.167L99.9738 145.828L98.3239 50.3158L99.1346 49.9266C101.708 48.6296 104.53 47.9007 107.409 47.7891C108.992 47.7614 110.568 47.9879 112.079 48.4599C118.944 50.6409 122.322 57.4442 122.354 57.51C122.43 57.667 122.548 57.8 122.695 57.8943C122.842 57.9887 123.012 58.0407 123.186 58.0447C128.066 58.1709 131.418 59.5604 133.17 62.1622C136.027 66.4166 133.776 72.6964 133.671 72.9783C133.625 73.0953 133.604 73.2204 133.608 73.346C133.612 73.4716 133.642 73.595 133.695 73.7086C133.805 73.9373 133.998 74.1153 134.235 74.2063C138.972 75.9248 141.999 78.6614 143.229 82.3462C144.278 85.4668 144.063 89.2275 142.607 93.5364C141.841 95.7976 140.833 97.9693 139.599 100.014L139.492 100.185L139.351 100.317C137.745 101.756 135.815 102.786 133.726 103.321C132.865 103.541 131.98 103.658 131.092 103.67C127.839 103.634 124.707 102.436 122.26 100.293C122.087 100.156 121.873 100.083 121.653 100.084C121.514 100.086 121.376 100.12 121.251 100.181C121.126 100.243 121.016 100.331 120.929 100.441C120.773 100.638 120.7 100.889 120.727 101.14C120.754 101.39 120.878 101.62 121.073 101.78L121.059 101.783Z" fill="black"/>
<path d="M111.024 128.755C111.032 129.005 111.138 129.241 111.318 129.414C111.499 129.587 111.74 129.682 111.99 129.679C112.116 129.675 112.241 129.646 112.356 129.593C112.471 129.541 112.574 129.466 112.66 129.374C112.746 129.281 112.813 129.173 112.857 129.054C112.901 128.936 112.921 128.81 112.917 128.683C112.915 128.18 113.002 123.641 116.196 120.65C118.344 118.798 121.113 117.826 123.947 117.931C124.641 117.921 125.369 117.948 126.113 118.011C126.139 118.022 126.185 118.012 126.215 118.014C126.431 118.009 126.639 117.931 126.806 117.795C126.952 117.675 127.059 117.513 127.113 117.332C127.166 117.15 127.164 116.957 127.107 116.776C127.05 116.596 126.94 116.437 126.791 116.32C126.643 116.203 126.462 116.132 126.274 116.119C125.484 116.05 124.692 116.023 123.9 116.038C120.579 115.936 117.343 117.103 114.852 119.301C110.912 123.023 110.997 128.537 111.007 128.768L111.015 128.751L111.024 128.755Z" fill="black"/>
<path d="M81.2272 112.936C79.4669 112.056 77.5149 111.628 75.5478 111.693C74.0064 111.716 72.4784 111.983 71.0205 112.484C70.8116 112.564 70.6378 112.716 70.5298 112.912C70.4217 113.108 70.3863 113.336 70.4298 113.556C70.4733 113.776 70.5929 113.973 70.7675 114.113C70.9421 114.253 71.1606 114.327 71.3845 114.322C71.4947 114.321 71.604 114.302 71.708 114.265C72.9585 113.848 74.2651 113.624 75.583 113.601C77.2518 113.543 78.9085 113.904 80.4019 114.651C83.1628 116.076 85.1225 118.923 86.2188 123.114C86.2736 123.32 86.3961 123.502 86.5666 123.63C86.7372 123.759 86.9459 123.826 87.1592 123.821C87.2375 123.819 87.3154 123.809 87.3916 123.791C87.5123 123.759 87.6254 123.703 87.7244 123.627C87.8235 123.551 87.9066 123.456 87.9689 123.348C88.0319 123.241 88.0726 123.122 88.0887 122.998C88.1048 122.874 88.0959 122.749 88.0625 122.629C86.8105 117.88 84.5114 114.614 81.2354 112.939L81.2272 112.936Z" fill="black"/>
</svg>
