<svg width="196" height="196" viewBox="0 0 196 196" fill="none" xmlns="http://www.w3.org/2000/svg">
<path d="M172 0H24C10.7452 0 0 10.7452 0 24V172C0 185.255 10.7452 196 24 196H172C185.255 196 196 185.255 196 172V24C196 10.7452 185.255 0 172 0Z" fill="#FFD4F1"/>
<rect width="134" height="134" transform="translate(31 37)" fill="#FFD4F1"/>
<path d="M98.0276 48.917C112.328 48.917 124.127 59.9512 125.123 74.0736H124.99L125.021 74.8539C125.034 75.171 124.973 75.4869 124.843 75.7768L124.369 76.8337H125.528H126.399C132.783 76.8337 139.646 81.2391 142.434 92.3383L142.733 93.6351L147.021 128.183L147.023 128.195C148.547 139.08 146.316 146.663 141.823 151.575C137.319 156.498 130.416 158.876 122.309 159.071C122.307 159.071 122.306 159.071 122.304 159.071L121.218 159.084H121.214H74.9326C66.6235 159.084 59.4556 157.563 54.7065 153.214C49.994 148.898 47.4854 141.626 48.8868 129.683C48.887 129.682 48.8871 129.681 48.8873 129.679L49.0796 128.187L49.0799 128.184L53.42 93.6155C54.4701 87.628 56.7396 83.5232 59.5277 80.8793C62.315 78.2362 65.6652 77.01 68.9607 76.8514L69.7109 76.8337H70.1385H71.0326L70.8771 75.9532C70.8187 75.6227 70.8187 75.2846 70.8771 74.9541L70.8858 74.9049L70.8879 74.855C71.4954 60.3603 83.4643 48.917 98.0276 48.917ZM87.4761 99.751V99.7284L87.4747 99.7058L87.4362 99.0688L87.4349 99.046L87.4321 99.0234C87.0845 96.1643 84.7077 93.9222 81.7916 93.9222C78.6319 93.9222 76.1071 96.5524 76.1071 99.751C76.1071 102.95 78.6319 105.58 81.7916 105.58C84.9513 105.58 87.4761 102.95 87.4761 99.751ZM77.6069 74.8236V74.8893L77.6184 74.9541C77.6767 75.2846 77.6767 75.6227 77.6184 75.9532L77.4629 76.8337H78.3569H117.504H118.597L118.203 75.8134C118.081 75.4957 118.015 75.1589 118.011 74.8187C118.008 63.6983 108.962 54.6886 97.8088 54.6886C86.654 54.6886 77.6069 63.7009 77.6069 74.8236ZM114.112 93.9222C110.953 93.9222 108.428 96.5524 108.428 99.751C108.428 102.95 110.953 105.58 114.112 105.58C117.272 105.58 119.797 102.95 119.797 99.751C119.797 96.5524 117.272 93.9222 114.112 93.9222Z" fill="#FF94D1" stroke="black" stroke-width="1.5"/>
</svg>
