<svg width="196" height="196" viewBox="0 0 196 196" fill="none" xmlns="http://www.w3.org/2000/svg">
<path d="M172 0H24C10.7452 0 0 10.7452 0 24V172C0 185.255 10.7452 196 24 196H172C185.255 196 196 185.255 196 172V24C196 10.7452 185.255 0 172 0Z" fill="#B0E899" fill-opacity="0.3"/>
<path d="M54.8409 116.238C54.8427 102.353 59.9119 88.9458 69.097 78.5332C78.2822 68.1205 90.9518 61.418 104.728 59.6836C102.364 59.3862 99.9837 59.233 97.6009 59.2246C82.4805 59.2259 67.9798 65.2331 57.2881 75.9248C46.5964 86.6165 40.5892 101.117 40.5879 116.238C40.5879 147.722 66.1169 158.998 97.6009 158.998C100.024 158.998 102.384 158.919 104.728 158.792C76.6009 157.145 54.8409 145.315 54.8409 116.238Z" fill="#84C45B"/>
<path d="M154.615 116.238C154.613 102.353 149.544 88.9458 140.359 78.5331C131.174 68.1205 118.504 61.418 104.728 59.6836C90.9518 61.4182 78.2825 68.1208 69.0976 78.5334C59.9126 88.9461 54.8436 102.353 54.8418 116.238C54.8418 145.314 76.6018 157.145 104.728 158.794C132.855 157.145 154.615 145.314 154.615 116.238Z" fill="#A2E080"/>
<path d="M104.728 59.6836C102.595 59.952 100.48 60.3433 98.3926 60.8556C110.809 63.87 121.852 70.9686 129.75 81.0119C137.648 91.0552 141.943 103.461 141.945 116.238C141.945 143.082 123.384 155.213 98.3926 158.222C100.468 158.475 102.574 158.665 104.728 158.792C132.854 157.145 154.614 145.314 154.614 116.238C154.612 102.353 149.543 88.9461 140.358 78.5334C131.173 68.1208 118.504 61.4182 104.728 59.6836Z" fill="#CFF7B5"/>
<path d="M91.2497 105.278C90.8298 105.276 90.4268 105.111 90.1257 104.819C88.8592 103.554 87.3439 102.566 85.6758 101.917C84.0076 101.268 82.2229 100.973 80.4347 101.05C77.6489 101.237 75.0061 102.352 72.9277 104.217C72.7738 104.361 72.5925 104.473 72.3946 104.546C72.1967 104.62 71.9861 104.652 71.7753 104.643C71.5645 104.634 71.3577 104.582 71.167 104.492C70.9764 104.401 70.8058 104.273 70.6653 104.116C70.5248 103.958 70.4172 103.775 70.3489 103.575C70.2806 103.375 70.2529 103.164 70.2674 102.953C70.282 102.743 70.3386 102.537 70.4338 102.349C70.5289 102.161 70.6609 101.993 70.8217 101.857C73.435 99.5258 76.7508 98.1327 80.2447 97.8977C82.4809 97.7986 84.7134 98.1641 86.8013 98.9709C88.8892 99.7778 90.7873 101.009 92.3757 102.586C92.5226 102.732 92.6391 102.906 92.7186 103.098C92.7981 103.289 92.839 103.495 92.839 103.702C92.839 103.91 92.7981 104.115 92.7186 104.307C92.6391 104.498 92.5226 104.672 92.3757 104.819C92.0746 105.111 91.6717 105.276 91.2517 105.278H91.2497Z" fill="#0F1141"/>
<path d="M130.653 105.279C130.233 105.277 129.83 105.113 129.529 104.82C128.259 103.56 126.743 102.575 125.076 101.926C123.408 101.278 121.625 100.98 119.837 101.051C117.051 101.239 114.408 102.354 112.33 104.218C112.176 104.362 111.995 104.474 111.797 104.548C111.599 104.621 111.388 104.654 111.178 104.644C110.967 104.635 110.76 104.584 110.569 104.493C110.379 104.402 110.208 104.275 110.068 104.117C109.927 103.96 109.82 103.776 109.751 103.576C109.683 103.377 109.655 103.165 109.67 102.955C109.684 102.744 109.741 102.539 109.836 102.35C109.931 102.162 110.063 101.995 110.224 101.858C112.837 99.5271 116.153 98.134 119.647 97.899C121.884 97.7926 124.118 98.1546 126.207 98.9619C128.296 99.7691 130.193 101.004 131.777 102.587C131.924 102.734 132.04 102.908 132.12 103.099C132.199 103.291 132.24 103.496 132.24 103.704C132.24 103.911 132.199 104.116 132.12 104.308C132.04 104.5 131.924 104.674 131.777 104.82C131.63 104.968 131.455 105.085 131.262 105.164C131.069 105.243 130.862 105.282 130.653 105.279Z" fill="#0F1141"/>
<path d="M100.546 125.486C100.246 125.486 99.9284 125.486 99.6124 125.454C96.1194 125.215 92.8047 123.823 90.1894 121.495C89.8882 121.212 89.7094 120.823 89.691 120.411C89.6727 119.999 89.8162 119.595 90.0911 119.287C90.366 118.979 90.7504 118.791 91.1622 118.762C91.574 118.734 91.9807 118.867 92.2954 119.135C94.3738 120.999 97.0166 122.114 99.8024 122.302C101.591 122.377 103.375 122.081 105.043 121.432C106.711 120.783 108.227 119.796 109.494 118.533C109.791 118.24 110.192 118.076 110.609 118.077C111.026 118.078 111.426 118.245 111.72 118.54C112.015 118.835 112.182 119.234 112.183 119.651C112.184 120.068 112.02 120.469 111.727 120.766C108.741 123.721 104.729 125.412 100.527 125.485L100.546 125.486Z" fill="#0F1141"/>
<path d="M97.6035 160.58C59.8135 160.58 39.0035 144.84 39.0035 116.24C38.9188 108.492 40.3719 100.803 43.2787 93.6193C46.1854 86.4357 50.4881 79.9001 55.9377 74.3906C61.3873 68.8811 67.8756 64.5072 75.0269 61.5221C82.1782 58.537 89.8506 57 97.6 57C105.349 57 113.022 58.537 120.173 61.5221C127.324 64.5072 133.813 68.8811 139.262 74.3906C144.712 79.9001 149.015 86.4357 151.921 93.6193C154.828 100.803 156.281 108.492 156.197 116.24C156.197 144.84 135.387 160.58 97.6035 160.58ZM97.6035 60.8075C82.9064 60.8225 68.8155 66.6676 58.4231 77.0601C48.0307 87.4525 42.1856 101.543 42.1705 116.24C42.1705 150.274 72.3085 157.416 97.5995 157.416C122.891 157.416 153.03 150.27 153.03 116.24C153.014 101.545 147.17 87.4548 136.779 77.0625C126.388 66.6703 112.299 60.8244 97.6035 60.8075Z" fill="#0F1141"/>
</svg>
