<svg width="238" height="238" viewBox="0 0 238 238" fill="none" xmlns="http://www.w3.org/2000/svg">
<path d="M208.857 0H29.1429C13.0477 0 0 13.0477 0 29.1429V208.857C0 224.952 13.0477 238 29.1429 238H208.857C224.952 238 238 224.952 238 208.857V29.1429C238 13.0477 224.952 0 208.857 0Z" fill="#FFD4F1"/>
<rect width="162.714" height="162.714" transform="translate(37.6426 44.9287)" fill="#FFD4F1"/>
<path d="M153.485 93.1371C161.325 93.1371 169.713 98.5517 173.112 112.087L173.478 113.671L178.686 155.631L178.687 155.643C180.543 168.891 177.83 178.154 172.333 184.163C166.824 190.185 158.392 193.081 148.521 193.318C148.52 193.318 148.518 193.318 148.516 193.318L147.194 193.333H147.189H90.9899C80.8881 193.333 72.1332 191.486 66.3211 186.164C60.5456 180.875 57.4981 171.983 59.2033 157.453C59.2035 157.452 59.2036 157.45 59.2038 157.449L59.4375 155.635L59.4378 155.632L64.7084 113.652C65.988 106.353 68.7572 101.333 72.1733 98.0938C75.5885 94.8552 79.6949 93.3527 83.7324 93.1588L84.6474 93.1371H85.1685H86.0626L85.9071 92.2566C85.8329 91.8368 85.8329 91.4073 85.9071 90.9875L85.9158 90.9383L85.9178 90.8885C86.6591 73.2012 101.264 59.2383 119.034 59.2383C136.541 59.2383 150.976 72.7917 152.108 90.1071H151.941L151.973 90.8874C151.989 91.2973 151.91 91.7055 151.742 92.0802L151.268 93.1371H152.427H153.485ZM106.06 121.126V121.103L106.059 121.081L106.012 120.307L106.011 120.285L106.008 120.262C105.595 116.866 102.774 114.209 99.3186 114.209C95.5749 114.209 92.5767 117.326 92.5767 121.126C92.5767 124.926 95.5749 128.043 99.3186 128.043C103.062 128.043 106.06 124.926 106.06 121.126ZM94.398 90.8571V90.9228L94.4094 90.9875C94.4836 91.4073 94.4836 91.8368 94.4094 92.2566L94.2539 93.1371H95.148H142.683H143.777L143.383 92.1169C143.227 91.713 143.144 91.2848 143.138 90.8522C143.136 77.4376 132.223 66.5681 118.768 66.5681C105.311 66.5681 94.398 77.4402 94.398 90.8571ZM138.565 114.209C134.822 114.209 131.824 117.326 131.824 121.126C131.824 124.926 134.822 128.043 138.565 128.043C142.309 128.043 145.307 124.926 145.307 121.126C145.307 117.326 142.309 114.209 138.565 114.209Z" fill="#FF94D1" stroke="black" stroke-width="1.5"/>
</svg>
