<svg width="209" height="199" viewBox="0 0 209 199" fill="none" xmlns="http://www.w3.org/2000/svg">
<g opacity="0.1">
<path d="M143.465 109.025C143.465 87.1614 125.748 69.4445 103.885 69.4445C90.6214 69.4445 78.9164 75.984 71.7266 85.9958C64.549 75.984 52.8318 69.4445 39.5686 69.4445C17.7169 69.4445 0 87.1614 0 109.025C0 112.117 0.392618 115.123 1.06743 118.019C6.5641 152.164 44.5132 188.199 71.7266 198.089C98.94 188.199 136.901 152.164 142.386 118.031C143.061 115.123 143.465 112.117 143.465 109.025ZM208.137 27.4097C208.137 12.2693 195.868 0 180.727 0C171.538 0 163.428 4.53966 158.446 11.4718C153.477 4.53966 145.367 0 136.177 0C121.037 0 108.768 12.2693 108.768 27.4097C108.768 29.5691 109.038 31.6426 109.504 33.6425C113.307 57.2978 139.613 82.2537 158.446 89.1C177.292 82.2537 203.597 57.2978 207.401 33.6548C207.867 31.6426 208.137 29.5691 208.137 27.4097Z" fill="#C17FD0"/>
</g>
</svg>
