<svg width="1211" height="598" viewBox="0 0 1211 598" fill="none" xmlns="http://www.w3.org/2000/svg">
<path fill-rule="evenodd" clip-rule="evenodd" d="M1017.5 0C1011.15 0 1006 5.14873 1006 11.5C1006 17.8513 1011.15 23 1017.5 23C1023.85 23 1029 17.8513 1029 11.5C1029 5.14873 1023.85 0 1017.5 0ZM329.646 96.5809L328.913 91.7838C328.752 90.7387 327.247 90.7387 327.087 91.7838L326.354 96.5809C326.292 96.9805 325.979 97.2936 325.581 97.3541L320.784 98.0874C319.739 98.2481 319.739 99.7533 320.784 99.9126L325.581 100.646C325.981 100.708 326.294 101.021 326.354 101.419L327.087 106.216C327.248 107.261 328.753 107.261 328.913 106.216L329.646 101.419C329.708 101.019 330.021 100.706 330.419 100.646L335.216 99.9126C336.261 99.7519 336.261 98.2467 335.216 98.0874L330.419 97.3541C330.019 97.2923 329.706 96.9791 329.646 96.5809ZM142.808 365.104L139.216 357.762C138.718 356.746 137.281 356.746 136.784 357.762L133.192 365.106L125.162 366.283C124.05 366.446 123.607 367.825 124.411 368.616L130.222 374.329L128.85 382.398C128.661 383.516 129.822 384.367 130.817 383.84L138 380.029L145.183 383.84C146.178 384.367 147.339 383.516 147.15 382.398L145.778 374.329L151.589 368.614C152.393 367.823 151.95 366.444 150.838 366.281L142.808 365.104ZM1201.81 519.104L1198.22 511.762C1197.72 510.746 1196.28 510.746 1195.78 511.762L1192.19 519.106L1184.16 520.283C1183.05 520.446 1182.61 521.825 1183.41 522.616L1189.22 528.329L1187.85 536.398C1187.66 537.516 1188.82 538.367 1189.82 537.84L1197 534.029L1204.18 537.84C1205.18 538.367 1206.34 537.516 1206.15 536.398L1204.78 528.329L1210.59 522.614C1211.39 521.823 1210.95 520.444 1209.84 520.281L1201.81 519.104ZM8.91258 582.784L9.64594 587.581C9.70636 587.979 10.0195 588.292 10.4191 588.354L15.2162 589.087C16.2613 589.247 16.2613 590.752 15.2162 590.913L10.4191 591.646C10.0209 591.706 9.70774 592.019 9.64594 592.419L8.91258 597.216C8.75327 598.261 7.2481 598.261 7.08742 597.216L6.35406 592.419C6.29363 592.021 5.98052 591.708 5.58088 591.646L0.783829 590.913C-0.261276 590.753 -0.261276 589.248 0.783829 589.087L5.58088 588.354C5.97914 588.294 6.29226 587.981 6.35406 587.581L7.08742 582.784C7.24673 581.739 8.7519 581.739 8.91258 582.784ZM866.913 555.784L867.646 560.581C867.706 560.979 868.019 561.292 868.419 561.354L873.216 562.087C874.261 562.247 874.261 563.752 873.216 563.913L868.419 564.646C868.021 564.706 867.708 565.019 867.646 565.419L866.913 570.216C866.753 571.261 865.248 571.261 865.087 570.216L864.354 565.419C864.294 565.021 863.981 564.708 863.581 564.646L858.784 563.913C857.739 563.753 857.739 562.248 858.784 562.087L863.581 561.354C863.979 561.294 864.292 560.981 864.354 560.581L865.087 555.784C865.247 554.739 866.752 554.739 866.913 555.784Z" fill="#1E244A"/>
</svg>
