<svg width="127" height="32" viewBox="0 0 127 32" fill="none" xmlns="http://www.w3.org/2000/svg">
<g clip-path="url(#clip0_1072_574)">
<mask id="mask0_1072_574" style="mask-type:luminance" maskUnits="userSpaceOnUse" x="0" y="0" width="127" height="32">
<path d="M126.171 0H0V32H126.171V0Z" fill="white"/>
</mask>
<g mask="url(#mask0_1072_574)">
<path fill-rule="evenodd" clip-rule="evenodd" d="M30.4296 29.6783C32.3863 30.7603 34.5939 31.3083 36.8301 31.2677C39.0717 31.3066 41.2845 30.7586 43.248 29.6783C45.1029 28.6557 46.6227 27.1201 47.6247 25.2558C48.6749 23.2731 49.1991 21.0547 49.1469 18.8122C49.1896 16.5701 48.6471 14.3554 47.5728 12.3859C46.566 10.5252 45.0475 8.99077 43.1961 7.96352C41.2325 6.88313 39.0199 6.33518 36.7783 6.3742C34.542 6.33334 32.3344 6.8815 30.3777 7.96352C28.5368 8.9929 27.03 10.5276 26.0357 12.3859C24.9613 14.3554 24.4188 16.5701 24.4615 18.8122C24.4175 21.0602 24.9599 23.2807 26.0357 25.2558C27.0487 27.1178 28.5731 28.6521 30.4296 29.6783ZM41.0337 18.8122C41.0337 22.2673 39.6325 23.9947 36.8301 23.9947C34.0277 23.9947 32.6784 22.2673 32.6784 18.8122C32.6784 15.3573 34.0624 13.5434 36.8301 13.5434C39.598 13.5434 41.0337 15.3054 41.0337 18.8122Z" fill="white"/>
<path fill-rule="evenodd" clip-rule="evenodd" d="M2.30063 12.4036C1.2191 14.3959 0.670907 16.6332 0.709131 18.8991C0.668546 21.1652 1.21688 23.4031 2.30063 25.3945C3.33177 27.262 4.88175 28.7917 6.76375 29.7996C8.81855 30.8663 11.1085 31.4008 13.4238 31.3544C15.162 31.4083 16.8896 31.0656 18.4752 30.3524C19.7422 29.778 20.8562 28.914 21.7273 27.8303C22.4062 26.9891 22.7729 25.9393 22.7653 24.8589C22.7884 24.4111 22.7066 23.9639 22.5264 23.5531C22.3462 23.1423 22.0726 22.7791 21.7273 22.4923C21.0721 21.9321 20.2373 21.6255 19.3746 21.6285C18.5738 21.6701 17.8058 21.96 17.1777 22.4577L16.3993 23.1487C16.0628 23.4544 15.6841 23.7104 15.2749 23.9088C14.6794 24.1352 14.0421 24.2295 13.4065 24.1852C12.781 24.2207 12.1558 24.1112 11.5797 23.8655C11.0035 23.6197 10.492 23.2444 10.0852 22.7687C9.25547 21.6615 8.84487 20.2968 8.92611 18.9163C8.84487 17.5359 9.25547 16.1712 10.0852 15.064C10.4929 14.5893 11.0045 14.2147 11.5804 13.9691C12.1564 13.7233 12.7812 13.6133 13.4065 13.6475C14.0021 13.6283 14.5941 13.7465 15.1365 13.9929C15.5873 14.2301 15.9964 14.5393 16.3473 14.9085C16.5974 15.1887 16.8692 15.4487 17.1604 15.6859C17.7898 16.1744 18.5604 16.4471 19.3573 16.4633C19.7912 16.4591 20.2197 16.3683 20.6177 16.1963C21.0158 16.0241 21.3754 15.7743 21.6754 15.4613C22.0193 15.1425 22.2913 14.7543 22.4732 14.3224C22.6552 13.8905 22.7429 13.4248 22.7306 12.9565C22.7444 11.8727 22.384 10.8173 21.71 9.96784C20.8334 8.89406 19.7205 8.03684 18.4578 7.46296C16.8636 6.75798 15.1322 6.41574 13.3893 6.461C11.0797 6.41752 8.79608 6.95202 6.74645 8.01576C4.86967 9.01678 3.32499 10.5413 2.30063 12.4036Z" fill="white"/>
<path fill-rule="evenodd" clip-rule="evenodd" d="M79.1072 12.4035C78.0258 14.3957 77.4775 16.633 77.5158 18.8989C77.4751 21.165 78.0235 23.403 79.1072 25.3943C80.1446 27.2631 81.7004 28.7927 83.5878 29.7995C85.6374 30.8633 87.921 31.3978 90.2305 31.3542C91.9739 31.4078 93.7074 31.0651 95.2991 30.3522C96.5608 29.7687 97.6727 28.9062 98.5513 27.8301C99.2178 26.9833 99.5771 25.9359 99.5716 24.8587C99.5999 24.407 99.5223 23.9547 99.3449 23.5379C99.1675 23.1213 98.8959 22.7514 98.5513 22.4575C97.8958 21.8973 97.061 21.5909 96.1988 21.5938C95.4024 21.6159 94.6336 21.8879 94.0018 22.3711L93.2055 23.0622C92.8727 23.3718 92.4932 23.6282 92.0818 23.8223C91.4948 24.0606 90.8629 24.1667 90.2305 24.1333C89.6048 24.1701 88.9791 24.0613 88.4028 23.8154C87.8264 23.5695 87.3151 23.1935 86.9091 22.7167C86.0732 21.6119 85.6564 20.247 85.7327 18.8643C85.6564 17.4818 86.0732 16.1169 86.9091 15.0121C87.3151 14.5353 87.8264 14.1591 88.4028 13.9133C88.9791 13.6674 89.6048 13.5586 90.2305 13.5954C90.8263 13.5731 91.419 13.6914 91.9602 13.9409C92.4164 14.1775 92.8315 14.4869 93.189 14.8565C93.4386 15.1307 93.7047 15.3903 93.9844 15.6339C94.6152 16.1203 95.3851 16.3927 96.1815 16.4113C97.0619 16.3997 97.9022 16.0393 98.5166 15.4094C98.8548 15.087 99.1218 14.6977 99.301 14.2665C99.4792 13.835 99.5662 13.3711 99.5543 12.9045C99.5771 11.8193 99.216 10.7611 98.5339 9.91585C97.6571 8.84205 96.5444 7.98484 95.2818 7.41096C93.6927 6.7074 91.9675 6.36516 90.2305 6.40901C87.9151 6.36263 85.6252 6.89721 83.5704 7.96377C81.6848 8.96671 80.1336 10.4978 79.1072 12.3689V12.4035Z" fill="white"/>
<path fill-rule="evenodd" clip-rule="evenodd" d="M126.126 18.8989C126.126 10.6069 122.666 6.46088 115.747 6.46088C113.871 6.4348 112.042 7.04369 110.557 8.18839V4.43969C110.626 1.46837 109.312 0 106.665 0C104.018 0 102.651 1.46837 102.651 4.43969V26.8973C102.574 28.0849 102.924 29.2612 103.638 30.2141C104.021 30.6248 104.493 30.9437 105.016 31.1471C105.54 31.3505 106.104 31.4332 106.665 31.3888C109.312 31.3888 110.627 29.8859 110.627 26.8973V19.3827C110.543 17.8668 110.816 16.3524 111.422 14.9601C111.792 14.5265 112.252 14.1783 112.771 13.9393C113.289 13.7005 113.853 13.5769 114.424 13.5769C114.994 13.5769 115.558 13.7005 116.076 13.9393C116.594 14.1783 117.054 14.5265 117.424 14.9601C118.019 16.3553 118.279 17.8695 118.186 19.3827V26.8455C118.186 29.834 119.501 31.3369 122.147 31.3369C122.708 31.3825 123.272 31.3005 123.796 31.0971C124.321 30.8936 124.792 30.574 125.175 30.1623C125.889 29.2095 126.238 28.0331 126.16 26.8455V18.8989H126.126Z" fill="white"/>
<path fill-rule="evenodd" clip-rule="evenodd" d="M74.4709 10.0362C74.5137 9.60661 74.443 9.17333 74.2658 8.77946C74.0888 8.38562 73.8114 8.04502 73.4614 7.79162C73.1113 7.53821 72.7009 7.38082 72.271 7.33515C71.8412 7.28947 71.4068 7.35713 71.0112 7.53134C65.8214 9.58705 65.4237 15.0459 65.4237 19.7621C65.4237 23.1134 65.5793 26.6721 63.3997 26.6721C61.22 26.6721 61.4796 23.2171 61.4796 20.0385C61.4796 15.0633 61.2546 9.67345 55.6325 7.61771C53.9372 6.90943 52.605 8.17051 52.605 10.0708C52.5013 14.735 52.5186 21.455 53.4701 23.9945C54.1489 26.1246 55.4885 27.9839 57.2953 29.3038C59.102 30.6235 61.2822 31.3354 63.5208 31.3363C65.818 31.3414 68.0558 30.6086 69.904 29.2461C71.6348 27.9174 72.9442 26.1178 73.6752 24.0635C74.6266 21.5933 74.592 14.7695 74.4709 10.0362Z" fill="white"/>
<path fill-rule="evenodd" clip-rule="evenodd" d="M63.4705 0C64.2881 0 65.0875 0.242147 65.7674 0.695819C66.4473 1.14949 66.9773 1.79431 67.2902 2.54875C67.6031 3.30317 67.685 4.13332 67.5254 4.93421C67.3659 5.73512 66.9722 6.47079 66.3939 7.04821C65.8157 7.62561 65.0791 8.01884 64.2771 8.17816C63.475 8.33747 62.6438 8.25569 61.8883 7.9432C61.1329 7.63071 60.4871 7.10152 60.0327 6.42255C59.5785 5.74357 59.3359 4.94533 59.3359 4.12875C59.3359 3.03373 59.7717 1.98357 60.547 1.20928C61.3223 0.434992 62.3739 0 63.4705 0Z" fill="#FCAD15"/>
</g>
</g>
<defs>
<clipPath id="clip0_1072_574">
<rect width="126.667" height="32" fill="white"/>
</clipPath>
</defs>
</svg>
