<svg width="1423" height="665" viewBox="0 0 1423 665" fill="none" xmlns="http://www.w3.org/2000/svg">
<g clip-path="url(#clip0_1110_588)">
<rect width="1423" height="665" fill="#7378DE"/>
<path opacity="0.2" d="M57.3851 930.928C195.502 930.928 307.467 797.098 307.467 632.009C307.467 466.921 195.502 333.09 57.3851 333.09C-80.7316 333.09 -192.697 466.921 -192.697 632.009C-192.697 797.098 -80.7316 930.928 57.3851 930.928Z" fill="#9199F2"/>
<path opacity="0.4" d="M57.3849 877.551C170.838 877.551 262.811 767.618 262.811 632.009C262.811 496.4 170.838 386.467 57.3849 386.467C-56.0687 386.467 -148.041 496.4 -148.041 632.009C-148.041 767.618 -56.0687 877.551 57.3849 877.551Z" fill="#9199F2"/>
<path opacity="0.6" d="M57.3846 824.174C146.175 824.174 218.154 738.138 218.154 632.009C218.154 525.879 146.175 439.844 57.3846 439.844C-31.4059 439.844 -103.385 525.879 -103.385 632.009C-103.385 738.138 -31.4059 824.174 57.3846 824.174Z" fill="#9199F2"/>
<path opacity="0.2" d="M1393.42 371.053C1531.54 371.053 1643.51 237.223 1643.51 72.1341C1643.51 -92.9544 1531.54 -226.785 1393.42 -226.785C1255.31 -226.785 1143.34 -92.9544 1143.34 72.1341C1143.34 237.223 1255.31 371.053 1393.42 371.053Z" fill="#9199F2"/>
<path opacity="0.4" d="M1393.42 317.676C1506.88 317.676 1598.85 207.743 1598.85 72.1339C1598.85 -63.4753 1506.88 -173.408 1393.42 -173.408C1279.97 -173.408 1188 -63.4753 1188 72.1339C1188 207.743 1279.97 317.676 1393.42 317.676Z" fill="#9199F2"/>
<path opacity="0.6" d="M1393.42 264.299C1482.21 264.299 1554.19 178.263 1554.19 72.1337C1554.19 -33.9961 1482.21 -120.031 1393.42 -120.031C1304.63 -120.031 1232.65 -33.9961 1232.65 72.1337C1232.65 178.263 1304.63 264.299 1393.42 264.299Z" fill="#9199F2"/>
</g>
<defs>
<clipPath id="clip0_1110_588">
<rect width="1423" height="665" fill="white"/>
</clipPath>
</defs>
</svg>
