<svg width="150" height="150" viewBox="0 0 150 150" fill="none" xmlns="http://www.w3.org/2000/svg">
<path d="M70.3174 148.658C67.0614 148.684 63.8782 147.684 61.2119 145.795C58.5455 143.907 56.5289 141.225 55.4431 138.123L46.802 113.865C46.0819 111.84 44.8848 110.022 43.3142 108.569C41.7435 107.116 39.8465 106.071 37.7869 105.525L13.1102 98.9613C10.263 98.2096 7.68118 96.6669 5.65759 94.5079C3.63401 92.349 2.24963 89.6603 1.66147 86.7468C1.07331 83.8333 1.3049 80.8115 2.32999 78.0242C3.35507 75.2369 5.13261 72.7956 7.46102 70.9772L27.6302 55.172C29.3121 53.8539 30.6515 52.1422 31.5328 50.1845C32.4141 48.2268 32.8108 46.0818 32.6889 43.9346L31.2388 18.1914C31.1013 16.0386 31.4043 13.8802 32.1291 11.8509C32.8538 9.82167 33.9847 7.96512 35.4511 6.39715C36.9389 4.80485 38.7315 3.53476 40.72 2.66404C42.7085 1.79333 44.8514 1.34015 47.0185 1.33203C50.1684 1.34146 53.2421 2.31201 55.8368 4.11652L76.9377 18.6091C78.7002 19.8179 80.7269 20.5762 82.8435 20.8187C84.9601 21.0612 87.1034 20.7807 89.089 20.0013L112.867 10.6535C116.078 9.35862 119.624 9.17685 122.949 10.1366C126.273 11.0964 129.189 13.1436 131.238 15.9572C132.701 17.9197 133.689 20.2013 134.122 22.6191C134.555 25.0368 134.421 27.5235 133.731 29.8796L126.593 54.7212C125.998 56.7867 125.909 58.9675 126.334 61.0754C126.76 63.1833 127.686 65.155 129.034 66.8204L145.187 86.7891C147.054 89.0885 148.245 91.8703 148.626 94.8191C149.008 97.768 148.563 100.766 147.344 103.472C146.124 106.179 144.179 108.486 141.727 110.132C139.276 111.778 136.417 112.697 133.476 112.784L107.972 113.586C105.841 113.654 103.758 114.245 101.903 115.309C100.049 116.373 98.4793 117.878 97.3299 119.692L83.5513 141.378C82.1432 143.632 80.188 145.483 77.8716 146.758C75.5552 148.032 72.9547 148.686 70.3174 148.658Z" fill="#A777ED"/>
<path d="M47.0209 2.65848C49.9069 2.66289 52.7235 3.55302 55.0977 5.21095L76.2052 19.7101C78.1436 21.0372 80.3715 21.8698 82.698 22.1365C85.0245 22.4032 87.3804 22.0961 89.5638 21.2416L113.335 11.8871C115.847 10.8953 118.585 10.6347 121.236 11.1348C123.888 11.635 126.348 12.8758 128.337 14.7166C130.326 16.5574 131.765 18.9246 132.49 21.5497C133.216 24.1747 133.199 26.9527 132.441 29.5685L125.322 54.3305C124.667 56.6029 124.569 59.0024 125.036 61.3217C125.504 63.641 126.523 65.8106 128.006 67.643L144.173 87.605C145.885 89.7126 146.978 92.263 147.329 94.9667C147.679 97.6704 147.272 100.419 146.154 102.901C145.036 105.383 143.253 107.499 141.005 109.008C138.757 110.517 136.136 111.359 133.439 111.439L107.929 112.241C105.587 112.314 103.299 112.962 101.261 114.129C99.2225 115.295 97.4959 116.946 96.23 118.937L82.4514 140.63C80.996 142.925 78.9331 144.762 76.4966 145.933C74.0601 147.104 71.3476 147.562 68.6669 147.254C65.9862 146.946 63.4445 145.885 61.3302 144.192C59.2159 142.498 57.6137 140.24 56.7052 137.673L48.0641 113.415C47.2718 111.186 45.9545 109.187 44.2261 107.588C42.4976 105.989 40.41 104.84 38.1436 104.239L13.4669 97.6756C10.8574 96.9862 8.49132 95.5718 6.63687 93.5928C4.78241 91.6138 3.5138 89.1494 2.97486 86.479C2.43592 83.8086 2.64821 81.0391 3.58767 78.4844C4.52713 75.9297 6.15617 73.6921 8.29008 72.0252L28.4527 56.22C30.3044 54.7704 31.7791 52.8873 32.7496 50.7331C33.7201 48.579 34.1572 46.2185 34.0231 43.8556L32.5731 18.1124C32.4556 16.1224 32.7431 14.1292 33.4178 12.2559C34.0925 10.3826 35.14 8.66892 36.4958 7.2207C37.8516 5.77248 39.4868 4.62047 41.3005 3.8358C43.1141 3.05113 45.0677 2.65041 47.0406 2.65848M47.0406 0.00659573C44.6949 0.0145799 42.3755 0.504801 40.2233 1.44738C38.0711 2.38995 36.1312 3.76519 34.5218 5.48938C32.927 7.18457 31.6958 9.19433 30.9055 11.3927C30.1152 13.591 29.7827 15.9306 29.929 18.2649L31.379 44.0081C31.4847 45.9446 31.1217 47.8779 30.3214 49.6407C29.5211 51.4036 28.3077 52.9427 26.7861 54.125L6.62354 69.9302C4.10248 71.9001 2.17793 74.5442 1.06802 77.5628C-0.0418942 80.5814 -0.292789 83.8537 0.34377 87.009C0.980329 90.1643 2.47889 93.0764 4.66961 95.4151C6.86032 97.7538 9.65558 99.4257 12.7386 100.241L37.4153 106.805C39.2693 107.296 40.977 108.236 42.3911 109.544C43.8051 110.851 44.8829 112.487 45.5315 114.31L54.1726 138.574C55.2474 141.607 57.1416 144.274 59.6404 146.274C62.1392 148.275 65.1427 149.527 68.3102 149.89C71.4777 150.253 74.6825 149.712 77.5612 148.329C80.4399 146.945 82.8773 144.774 84.5969 142.062L98.3755 120.376C99.4109 118.745 100.823 117.394 102.491 116.439C104.159 115.484 106.032 114.953 107.948 114.893L133.452 114.084C136.637 113.988 139.733 112.991 142.387 111.208C145.041 109.425 147.147 106.926 148.467 103.995C149.788 101.064 150.269 97.8179 149.857 94.6246C149.444 91.4312 148.155 88.4184 146.135 85.9277L130.053 65.9922C128.841 64.4907 128.008 62.7145 127.625 60.8161C127.243 58.9177 127.321 56.9538 127.855 55.0929L134.987 30.311C135.74 27.7515 135.887 25.0491 135.418 22.4214C134.948 19.7937 133.875 17.314 132.284 15.182C130.066 12.1365 126.912 9.91932 123.316 8.87696C119.719 7.83459 115.881 8.02583 112.403 9.4208L88.6189 18.7687C86.8323 19.4678 84.9046 19.719 83.0009 19.5008C81.0972 19.2826 79.2742 18.6014 77.688 17.5157L56.574 3.00988C53.7617 1.05862 50.4324 0.00967103 47.0209 0L47.0406 0.00659573Z" fill="#333333"/>
<path d="M43.2396 5.21047L64.3404 19.7097C66.2794 21.0383 68.5085 21.8718 70.8363 22.1386C73.1642 22.4053 75.5214 22.0974 77.7056 21.2411L78.4208 20.9561C77.6468 20.6072 76.9047 20.1901 76.2031 19.7097L55.0957 5.21047C53.0625 3.79155 50.6991 2.9312 48.2375 2.71385C45.7759 2.4965 43.3006 2.92963 41.0547 3.97072C41.8157 4.32205 42.5466 4.73673 43.2396 5.21047Z" fill="#8151CE"/>
<path d="M144.174 87.6046L128.02 67.6426C126.537 65.8102 125.518 63.6406 125.05 61.3213C124.583 59.002 124.681 56.6025 125.336 54.3301L132.455 29.5681C135.801 17.9529 124.51 7.50443 113.349 11.8867L112.647 12.1651C115.829 13.606 118.388 16.1622 119.85 19.3613C121.311 22.5604 121.578 26.1861 120.599 29.5681L113.48 54.3301C112.825 56.6025 112.727 59.002 113.194 61.3213C113.662 63.6406 114.681 65.8102 116.164 67.6426L132.311 87.6046C134.023 89.7122 135.116 92.2626 135.467 94.9663C135.817 97.67 135.41 100.419 134.292 102.901C133.175 105.383 131.391 107.498 129.143 109.007C126.895 110.516 124.274 111.359 121.577 111.438L96.0733 112.241C93.732 112.314 91.4435 112.962 89.4053 114.128C87.3671 115.295 85.6406 116.945 84.3746 118.937L70.5961 140.629C69.0997 143.012 66.947 144.902 64.4023 146.066C67.5575 147.495 71.1156 147.732 74.4294 146.735C77.7432 145.737 80.5924 143.57 82.4588 140.629L96.2373 118.937C97.5032 116.945 99.2298 115.295 101.268 114.128C103.306 112.962 105.595 112.314 107.936 112.241L133.446 111.438C136.143 111.357 138.763 110.514 141.01 109.005C143.257 107.495 145.04 105.379 146.157 102.898C147.274 100.416 147.68 97.6679 147.329 94.9647C146.979 92.2616 145.886 89.7118 144.174 87.6046Z" fill="#8151CE"/>
<path d="M61.4983 56.5924C60.3948 55.1561 59.6263 53.4867 59.2503 51.7086C58.8742 49.9304 58.9003 48.0895 59.3266 46.3229C59.3527 46.1712 59.4092 46.0265 59.4928 45.8977C59.5763 45.769 59.6851 45.6589 59.8125 45.5742C59.9398 45.4896 60.0829 45.4322 60.233 45.4056C60.3831 45.379 60.537 45.3838 60.6852 45.4196C60.8334 45.4555 60.9728 45.5216 61.0947 45.614C61.2167 45.7064 61.3185 45.8231 61.3941 45.9568C61.4697 46.0905 61.5174 46.2385 61.5342 46.3915C61.551 46.5446 61.5365 46.6995 61.4918 46.8467C61.1407 48.3127 61.1267 49.8404 61.451 51.3127C61.7752 52.785 62.429 54.1627 63.3622 55.3399C64.2954 56.5171 65.4831 57.4626 66.8343 58.1038C68.1854 58.745 69.6639 59.0648 71.1564 59.0387C71.4372 59.0559 71.7012 59.1797 71.8955 59.3852C72.0898 59.5908 72.2001 59.8629 72.2042 60.1471C72.2084 60.4313 72.1061 60.7066 71.9179 60.9178C71.7297 61.129 71.4694 61.2606 71.1892 61.2862C69.3248 61.3136 67.4795 60.904 65.7981 60.0896C64.1167 59.2752 62.6449 58.0781 61.4983 56.5924Z" fill="#333333"/>
<path d="M83.4477 85.2191C82.344 83.7817 81.5755 82.1111 81.1994 80.3319C80.8234 78.5527 80.8496 76.7107 81.2759 74.9431C81.304 74.7929 81.362 74.65 81.4465 74.5232C81.5309 74.3964 81.64 74.2883 81.7671 74.2054C81.8942 74.1226 82.0367 74.0667 82.1858 74.0412C82.3349 74.0157 82.4877 74.0211 82.6347 74.0571C82.7817 74.0931 82.9199 74.159 83.0409 74.2507C83.162 74.3423 83.2633 74.4579 83.3387 74.5904C83.4141 74.7229 83.4621 74.8695 83.4797 75.0213C83.4973 75.1731 83.4842 75.3269 83.4411 75.4734C83.09 76.9394 83.076 78.4672 83.4002 79.9395C83.7245 81.4118 84.3783 82.7895 85.3115 83.9667C86.2447 85.1439 87.4324 86.0894 88.7835 86.7306C90.1347 87.3718 91.6133 87.6916 93.1058 87.6655C93.2587 87.6515 93.4128 87.6696 93.5585 87.7187C93.7042 87.7677 93.8383 87.8466 93.9524 87.9504C94.0665 88.0542 94.1581 88.1807 94.2216 88.3219C94.2851 88.4632 94.3191 88.6162 94.3213 88.7713C94.3236 88.9265 94.2941 89.0804 94.2348 89.2235C94.1755 89.3666 94.0875 89.4958 93.9765 89.603C93.8655 89.7101 93.7337 89.793 93.5895 89.8463C93.4454 89.8997 93.2918 89.9224 93.1386 89.913C91.2741 89.9404 89.4288 89.5308 87.7474 88.7164C86.066 87.902 84.5942 86.7049 83.4477 85.2191Z" fill="#333333"/>
<path d="M65.9433 80.7035C64.9137 80.6902 63.9009 80.438 62.9832 79.9663C62.0654 79.4946 61.2672 78.8161 60.6502 77.9831C60.0332 77.1502 59.614 76.1851 59.4248 75.1624C59.2356 74.1397 59.2817 73.0867 59.5593 72.0848C59.6465 71.7634 59.604 71.4201 59.4411 71.1302C59.2776 70.8435 59.0086 70.6339 58.6927 70.547C58.3768 70.46 58.0397 70.5028 57.7549 70.6661C57.614 70.7456 57.4903 70.8529 57.3911 70.9816C57.292 71.1102 57.2193 71.2577 57.1775 71.4152C56.8001 72.8096 56.7477 74.2734 57.0243 75.6917C57.301 77.11 57.8991 78.4443 58.7719 79.5897C59.6127 80.6999 60.6908 81.6039 61.9258 82.2341C63.1607 82.8644 64.5206 83.2046 65.9039 83.2294C66.2164 83.2064 66.5086 83.0647 66.722 82.8329C66.9353 82.601 67.0539 82.2962 67.0539 81.9797C67.0539 81.6631 66.9353 81.3583 66.722 81.1265C66.5086 80.8947 66.2164 80.753 65.9039 80.73L65.9433 80.7035Z" fill="#333333"/>
</svg>
