<svg width="74" height="65" viewBox="0 0 74 65" fill="none" xmlns="http://www.w3.org/2000/svg">
<g clip-path="url(#clip0_1072_636)">
<path d="M10 37C10 18.64 23.74 3.51 41.5 1.29C40.02 1.11 38.53 1 37 1C17.12 1 1 17.12 1 37C1 56.88 17.12 64 37 64C38.53 64 40.02 63.95 41.5 63.87C23.74 62.83 10 55.36 10 37Z" fill="#8151CE"/>
<path d="M73 37C73 18.64 59.26 3.51004 41.5 1.29004C23.74 3.51004 10 18.64 10 37C10 55.36 23.74 62.83 41.5 63.87C59.26 62.83 73 55.36 73 37Z" fill="#A777ED"/>
<path d="M41.5 1.29004C40.14 1.46004 38.81 1.71004 37.5 2.03004C53.28 5.85004 65 20.05 65 37C65 53.95 53.28 61.61 37.5 63.51C38.81 63.67 40.14 63.79 41.5 63.87C59.26 62.83 73 55.36 73 37C73 18.64 59.26 3.51004 41.5 1.29004Z" fill="#B494E2"/>
<path d="M32.9901 30.0795C32.7301 30.0795 32.4801 29.9795 32.2801 29.7895C31.6701 29.1795 29.4301 27.1995 26.1601 27.4095C23.8301 27.5495 22.1901 28.7195 21.4201 29.4095C21.0101 29.7795 20.3801 29.7395 20.0101 29.3295C19.6401 28.9195 19.6801 28.2895 20.0901 27.9195C21.0501 27.0595 23.1101 25.5995 26.0401 25.4195C30.1401 25.1595 32.9401 27.6195 33.7001 28.3795C34.0901 28.7695 34.0901 29.3995 33.7001 29.7895C33.5001 29.9795 33.2501 30.0795 32.9901 30.0795Z" fill="#212640"/>
<path d="M57.8709 30.0799C57.6109 30.0799 57.3609 29.9799 57.1609 29.7899C56.5509 29.1799 54.3009 27.2099 51.0409 27.4099C48.7109 27.5499 47.0709 28.7199 46.3009 29.4099C45.8909 29.7799 45.2609 29.7399 44.8909 29.3299C44.5209 28.9199 44.5609 28.2899 44.9709 27.9199C45.9309 27.0599 47.9909 25.5999 50.9209 25.4199C55.0409 25.1499 57.8209 27.6199 58.5809 28.3799C58.9709 28.7699 58.9709 29.3999 58.5809 29.7899C58.3809 29.9899 58.1309 30.0799 57.8709 30.0799Z" fill="#212640"/>
<path d="M38.8606 42.8397C38.6706 42.8397 38.4706 42.8397 38.2706 42.8197C35.3406 42.6397 33.2906 41.1797 32.3206 40.3197C31.9106 39.9497 31.8706 39.3197 32.2406 38.9097C32.6106 38.4997 33.2406 38.4597 33.6506 38.8297C34.4206 39.5197 36.0606 40.6897 38.3906 40.8297C41.6706 41.0297 43.9006 39.0597 44.5106 38.4497C44.9006 38.0597 45.5306 38.0597 45.9206 38.4497C46.3106 38.8397 46.3106 39.4697 45.9206 39.8597C45.2006 40.5797 42.6406 42.8397 38.8506 42.8397H38.8606Z" fill="#212640"/>
<path d="M37 65C13.14 65 0 55.06 0 37C0 16.6 16.6 0 37 0C57.4 0 74 16.6 74 37C74 55.06 60.86 65 37 65ZM37 2C17.7 2 2 17.7 2 37C2 58.49 21.03 63 37 63C52.97 63 72 58.49 72 37C72 17.7 56.3 2 37 2Z" fill="#212640"/>
</g>
<defs>
<clipPath id="clip0_1072_636">
<rect width="74" height="65" fill="white"/>
</clipPath>
</defs>
</svg>
