<svg width="562" height="460" viewBox="0 0 562 460" fill="none" xmlns="http://www.w3.org/2000/svg">
<path d="M239.909 308.688C191.179 292.481 94.8923 255.592 24.6062 295.846C-23.283 323.275 7.36796 394.736 43.4158 410.402C79.4636 426.069 222.655 439.577 278.576 447.149C334.497 454.72 335.925 459.434 349.64 457.815C363.354 456.196 358.259 447.688 358.259 447.688C358.259 447.688 363.402 447.419 364.926 443.434C366.497 439.307 361.989 436.339 361.989 436.339C361.989 436.339 368.037 437.323 369.83 430.974C371.688 424.387 369.529 420.228 361.989 419.418C356.005 418.783 318.1 412.021 305.354 409.99C305.37 410.006 305.894 330.64 239.909 308.688Z" fill="#A861EB"/>
<path d="M362.005 437.15C361.957 437.15 361.91 437.15 361.846 437.134C359.116 436.594 349.798 435.674 349.703 435.658C349.275 435.61 348.941 435.229 348.989 434.785C349.037 434.341 349.402 434.039 349.862 434.071C350.243 434.102 359.338 435.007 362.148 435.563C362.576 435.642 362.862 436.071 362.767 436.499C362.703 436.896 362.37 437.15 362.005 437.15Z" fill="#200B42"/>
<path d="M353.004 449.054C350.401 449.054 348.369 448.737 348.226 448.721C347.797 448.657 347.496 448.245 347.559 447.816C347.623 447.387 348.035 447.086 348.464 447.149C348.512 447.149 353.829 447.959 358.083 446.927C358.512 446.832 358.94 447.086 359.035 447.514C359.131 447.943 358.877 448.372 358.448 448.467C356.655 448.911 354.702 449.054 353.004 449.054Z" fill="#200B42"/>
<path d="M306.132 305.768C361.989 283.879 463.879 249.482 536.562 289.736C586.07 317.165 554.387 388.625 517.101 404.292C479.815 419.959 379.021 441.134 321.195 448.689C263.369 456.245 261.893 460.975 247.703 459.356C233.512 457.737 238.782 449.229 238.782 449.229C238.782 449.229 233.464 448.959 231.893 444.975C230.274 440.848 234.925 437.88 234.925 437.88C234.925 437.88 229.433 440.229 226.163 434.451C223.75 430.181 226.766 423.832 234.925 421.752C242.052 419.927 277.687 419.959 293.481 411.53C274.941 423.61 230.941 335.244 306.132 305.768Z" fill="#A861EB"/>
<path d="M234.956 422.563C234.607 422.563 234.273 422.324 234.194 421.959C234.083 421.531 234.337 421.102 234.765 420.991C236.924 420.436 241.527 420.055 247.353 419.578C261.21 418.436 282.147 416.721 293.147 410.832C293.528 410.626 294.02 410.769 294.226 411.166C294.432 411.547 294.29 412.039 293.893 412.245C282.591 418.277 261.464 420.023 247.48 421.166C241.734 421.642 237.194 422.007 235.162 422.531C235.083 422.547 235.019 422.563 234.956 422.563Z" fill="#200B42"/>
<path d="M226.194 435.262C225.924 435.262 225.654 435.119 225.495 434.865C224.384 432.881 224.289 430.436 225.273 428.166C226.717 424.785 230.162 422.182 234.749 421.008C235.178 420.896 235.606 421.15 235.717 421.579C235.828 422.008 235.575 422.436 235.146 422.547C231.051 423.595 227.971 425.865 226.733 428.785C225.94 430.627 226.003 432.515 226.892 434.071C227.114 434.452 226.971 434.944 226.59 435.15C226.463 435.23 226.32 435.262 226.194 435.262Z" fill="#200B42"/>
<path d="M232.321 439.134C230.242 439.134 227.48 438.356 225.496 434.848C225.274 434.467 225.417 433.975 225.798 433.768C226.179 433.546 226.655 433.689 226.877 434.07C229.734 439.134 234.433 437.229 234.639 437.149C235.036 436.975 235.512 437.165 235.671 437.578C235.845 437.975 235.655 438.451 235.258 438.61C235.242 438.626 234.004 439.134 232.321 439.134Z" fill="#200B42"/>
<path d="M234.957 438.673C234.592 438.673 234.259 438.403 234.179 438.023C234.1 437.594 234.386 437.181 234.814 437.086C237.719 436.531 247.116 435.626 247.513 435.594C247.957 435.562 248.338 435.88 248.37 436.308C248.417 436.753 248.084 437.134 247.656 437.181C247.56 437.197 237.925 438.118 235.1 438.657C235.052 438.673 235.005 438.673 234.957 438.673Z" fill="#200B42"/>
<path d="M244.259 450.578C242.497 450.578 240.481 450.451 238.624 450.006C238.195 449.911 237.926 449.482 238.037 449.054C238.132 448.625 238.561 448.355 238.989 448.466C243.386 449.498 248.894 448.689 248.957 448.689C249.386 448.625 249.799 448.927 249.862 449.355C249.926 449.784 249.624 450.197 249.196 450.26C249.037 450.26 246.942 450.578 244.259 450.578Z" fill="#200B42"/>
<path d="M293.512 412.339C293.258 412.339 293.004 412.212 292.845 411.99C292.607 411.625 292.703 411.133 293.068 410.895L434.053 317.767C434.418 317.529 434.91 317.624 435.148 317.99C435.386 318.355 435.291 318.847 434.926 319.085L293.941 412.212C293.814 412.292 293.671 412.339 293.512 412.339Z" fill="#200B42"/>
<path d="M299.656 408.277C299.545 408.277 299.434 408.261 299.338 408.214L131.814 334.15C131.417 333.975 131.226 333.499 131.401 333.102C131.576 332.705 132.052 332.515 132.449 332.705L299.973 406.769C300.37 406.944 300.561 407.42 300.386 407.817C300.243 408.103 299.957 408.277 299.656 408.277Z" fill="#200B42"/>
<path d="M304.369 451.832C303.988 451.832 303.638 451.546 303.591 451.165C303.527 450.737 303.813 450.324 304.258 450.261C307.877 449.705 313.4 448.896 319.908 447.943C333.162 446.007 351.321 443.356 365.131 441.022C365.559 440.943 365.972 441.245 366.052 441.673C366.131 442.102 365.829 442.515 365.401 442.594C351.575 444.927 333.401 447.578 320.146 449.515C313.639 450.467 308.115 451.276 304.511 451.832C304.464 451.832 304.416 451.832 304.369 451.832Z" fill="#200B42"/>
<path d="M69.2263 307.212C132.989 229.132 154.862 135.782 192.211 84.8933C198.687 76.0678 212.116 63.6074 225.688 63.6074C248.831 67.544 247.005 96.4648 230.783 149.417C194.005 269.307 115.163 308.99 99.4964 317.371C99.4964 317.371 82.0201 327.847 71.5914 318.926C67.9406 316.085 65.2263 312.545 69.2263 307.212Z" fill="#A861EB"/>
<path d="M81.7962 332.338C90.1296 328.386 91.9074 334.227 102.177 336.386C112.447 338.545 118.257 335.306 117.574 329.767C116.892 324.227 102.177 319.909 92.59 313.29C83.0026 306.671 77.5899 301.671 65.5739 304.909C53.558 308.148 35.7166 322.338 33.288 330.719C30.8594 339.1 44.9071 336.116 44.9071 336.116C44.9071 336.116 37.3198 343.529 40.8595 348.402C44.3357 353.211 50.7802 351.402 57.4786 346.91C62.6533 343.465 69.9073 337.973 81.7962 332.338Z" fill="#A861EB"/>
<path d="M44.9072 336.909C44.7008 336.909 44.4945 336.83 44.3358 336.655C44.0342 336.338 44.05 335.83 44.3675 335.528C51.3993 328.83 62.8438 321.369 62.9549 321.29C63.32 321.052 63.8121 321.163 64.0502 321.528C64.2882 321.893 64.193 322.385 63.8121 322.623C63.7009 322.703 52.3675 330.099 45.4469 336.687C45.2881 336.83 45.0977 336.909 44.9072 336.909Z" fill="#200B42"/>
<path d="M99.4956 318.164C99.2099 318.164 98.9401 318.005 98.7972 317.751C98.5908 317.37 98.7337 316.878 99.1305 316.672L100.226 316.085C177.845 274.846 213.655 202.56 230.036 149.195C230.163 148.782 230.607 148.544 231.02 148.671C231.433 148.798 231.671 149.242 231.544 149.655C215.084 203.306 179.068 275.989 100.956 317.481L99.8607 318.069C99.7496 318.132 99.6226 318.164 99.4956 318.164Z" fill="#200B42"/>
<path d="M57.4633 347.719C57.2093 347.719 56.9553 347.592 56.7966 347.37C56.5585 347.005 56.6538 346.513 57.0188 346.275C57.876 345.703 58.7808 345.084 59.749 344.418C64.6856 341.021 71.4634 336.37 81.4476 331.64C81.8444 331.449 82.3206 331.624 82.5111 332.021C82.7015 332.418 82.5269 332.894 82.1301 333.084C72.257 337.767 65.5427 342.37 60.6538 345.735C59.6697 346.402 58.7649 347.037 57.8919 347.608C57.7649 347.672 57.622 347.719 57.4633 347.719Z" fill="#200B42"/>
<path d="M46.511 352.053C43.4158 352.053 41.4475 350.577 40.2094 348.879C39.9554 348.529 40.0348 348.021 40.384 347.767C40.7332 347.513 41.2411 347.593 41.4951 347.942C45.0031 352.783 51.8761 349.704 57.0349 346.26C57.4 346.021 57.892 346.117 58.1301 346.482C58.3682 346.847 58.273 347.339 57.9079 347.577C52.9872 350.863 49.2888 352.053 46.511 352.053Z" fill="#200B42"/>
<path d="M40.8449 349.212C40.5909 349.212 40.3528 349.101 40.1941 348.879C36.3052 343.498 44.0037 335.879 44.337 335.546C44.6544 335.244 45.1465 335.244 45.464 335.561C45.7656 335.879 45.7656 336.371 45.4481 336.688C45.3846 336.752 38.4004 343.673 41.4798 347.942C41.7338 348.292 41.6544 348.8 41.3052 349.054C41.1782 349.149 41.0195 349.212 40.8449 349.212Z" fill="#200B42"/>
<path d="M39.8761 337.418C37.4317 337.418 34.7491 337.005 33.2888 335.433C32.1618 334.227 31.9078 332.56 32.511 330.481C32.638 330.052 33.0666 329.814 33.4951 329.941C33.9237 330.068 34.1618 330.497 34.0348 330.925C33.5904 332.449 33.7332 333.576 34.4475 334.354C36.4475 336.513 42.5428 335.799 44.7174 335.338C45.1619 335.259 45.5746 335.529 45.654 335.957C45.7333 336.386 45.4635 336.814 45.0349 336.894C44.8762 336.926 42.5269 337.418 39.8761 337.418Z" fill="#200B42"/>
<path d="M33.2882 331.514C33.2088 331.514 33.1453 331.498 33.066 331.482C32.6374 331.355 32.3993 330.926 32.5263 330.498C35.0025 321.99 53.1137 307.45 65.3678 304.148C65.7963 304.037 66.2249 304.275 66.336 304.704C66.4471 305.132 66.1932 305.561 65.7805 305.672C53.9074 308.878 36.4152 322.799 34.0501 330.926C33.939 331.275 33.6215 331.514 33.2882 331.514Z" fill="#200B42"/>
<path d="M117.576 330.561C117.179 330.561 116.845 330.259 116.782 329.862C116.401 326.799 110.401 323.783 104.036 320.592C99.9565 318.545 95.7343 316.434 92.1311 313.942C91.766 313.688 91.6866 313.195 91.9247 312.83C92.1787 312.465 92.6707 312.37 93.0358 312.624C96.5438 315.053 100.718 317.132 104.75 319.164C111.798 322.703 117.893 325.751 118.369 329.656C118.417 330.084 118.115 330.481 117.671 330.545C117.639 330.561 117.607 330.561 117.576 330.561Z" fill="#200B42"/>
<path d="M108.147 337.864C106.29 337.864 104.226 337.626 102.004 337.165C101.575 337.07 101.306 336.657 101.385 336.229C101.48 335.8 101.893 335.515 102.321 335.61C108.21 336.848 112.925 336.324 115.29 334.165C116.496 333.07 116.988 331.626 116.782 329.864C116.734 329.435 117.036 329.038 117.48 328.975C117.925 328.911 118.306 329.229 118.369 329.673C118.639 331.927 117.956 333.896 116.385 335.34C114.56 337.007 111.718 337.864 108.147 337.864Z" fill="#200B42"/>
<path d="M102.179 337.18C102.131 337.18 102.068 337.181 102.02 337.165C98.0359 336.323 95.2581 334.927 93.0041 333.8C89.3692 331.974 86.9723 330.752 82.131 333.053C81.7342 333.244 81.258 333.069 81.0675 332.673C80.877 332.276 81.0516 331.8 81.4485 331.609C86.9882 328.99 89.9565 330.482 93.7184 332.371C95.9882 333.514 98.5597 334.815 102.337 335.609C102.766 335.704 103.036 336.117 102.957 336.546C102.877 336.927 102.544 337.18 102.179 337.18Z" fill="#200B42"/>
<path d="M69.226 308.005C69.0514 308.005 68.8768 307.942 68.7181 307.831C68.3847 307.561 68.3212 307.053 68.607 306.72C76.0991 297.561 83.4166 287.64 90.369 277.259C90.6071 276.894 91.0992 276.799 91.4642 277.037C91.8293 277.275 91.9246 277.767 91.6865 278.132C84.7023 288.545 77.353 298.497 69.8292 307.704C69.6705 307.91 69.4482 308.005 69.226 308.005Z" fill="#200B42"/>
<path d="M65.5752 305.704C65.226 305.704 64.9085 305.465 64.8133 305.116C64.7021 304.688 64.9561 304.259 65.3688 304.148C67.7022 303.513 69.8292 303.18 71.8609 303.116C72.3212 303.132 72.6704 303.45 72.6863 303.878C72.7022 304.323 72.353 304.688 71.9244 304.704C70.0196 304.767 68.0196 305.084 65.7974 305.688C65.7021 305.704 65.6387 305.704 65.5752 305.704Z" fill="#200B42"/>
<path d="M490.53 268.322C388.307 218.322 372.45 117.401 325.704 74.9721C317.592 67.607 303.688 57.1942 290.418 58.7498C268.513 67.226 270.783 93.6548 296.497 148.75C332.608 256.386 428.625 276.846 464.006 283.862C464.006 283.862 483.482 288.418 492.244 281.926C499.8 277.894 496.387 271.195 490.53 268.322Z" fill="#A861EB"/>
<path d="M489.307 291.671C480.354 289.465 479.767 295.544 470.148 299.703C460.513 303.862 457.418 301.402 456.195 297.957C454.338 292.687 460.767 287.338 468.846 278.941C476.926 270.544 481.227 264.56 493.656 265.354C506.084 266.147 526.497 271.814 530.148 279.719C534.005 288.037 523.259 288.036 523.259 288.036C523.259 288.036 531.831 292.671 529.339 298.164C526.894 303.576 522.45 303.433 512.926 300.195C507.021 298.179 502.084 294.83 489.307 291.671Z" fill="#A861EB"/>
<path d="M523.26 288.829C523.117 288.829 522.974 288.797 522.831 288.702C514.783 283.654 502.514 280.512 502.387 280.48C501.958 280.369 501.704 279.94 501.815 279.512C501.926 279.083 502.355 278.829 502.783 278.94C503.291 279.067 515.418 282.162 523.672 287.353C524.038 287.591 524.149 288.083 523.926 288.448C523.784 288.686 523.514 288.829 523.26 288.829Z" fill="#200B42"/>
<path d="M464.006 284.67C463.958 284.67 463.91 284.67 463.847 284.654C431.355 278.209 332.513 258.606 295.735 149.002C295.592 148.59 295.814 148.145 296.227 148.002C296.64 147.859 297.1 148.082 297.227 148.494C333.703 257.209 431.878 276.686 464.133 283.082C464.561 283.162 464.847 283.59 464.752 284.019C464.72 284.4 464.387 284.67 464.006 284.67Z" fill="#200B42"/>
<path d="M512.926 300.973C512.847 300.973 512.752 300.957 512.672 300.925C510.704 300.258 508.831 299.433 506.831 298.56C502.752 296.766 497.656 294.544 489.133 292.433C488.704 292.322 488.45 291.893 488.545 291.465C488.656 291.036 489.085 290.782 489.498 290.877C498.164 293.02 503.323 295.274 507.466 297.084C509.514 297.989 511.292 298.766 513.196 299.401C513.609 299.544 513.831 299.989 513.688 300.401C513.561 300.766 513.26 300.973 512.926 300.973Z" fill="#200B42"/>
<path d="M522.894 303.242C520.212 303.242 516.847 302.353 512.672 300.941C512.259 300.798 512.037 300.353 512.18 299.941C512.323 299.528 512.767 299.306 513.18 299.448C523.069 302.814 526.529 302.448 528.609 297.845C528.783 297.448 529.26 297.274 529.656 297.448C530.053 297.623 530.228 298.099 530.053 298.496C528.529 301.877 526.228 303.242 522.894 303.242Z" fill="#200B42"/>
<path d="M529.339 298.956C529.228 298.956 529.117 298.94 529.006 298.892C528.609 298.717 528.434 298.241 528.609 297.844C530.768 293.083 522.958 288.781 522.879 288.749C522.498 288.543 522.355 288.067 522.561 287.67C522.768 287.289 523.244 287.146 523.641 287.352C524.022 287.559 532.831 292.4 530.069 298.495C529.926 298.781 529.641 298.956 529.339 298.956Z" fill="#200B42"/>
<path d="M523.26 288.828C522.816 288.828 522.467 288.479 522.467 288.035C522.467 287.59 522.816 287.241 523.26 287.241C523.308 287.241 528.133 287.209 529.705 284.733C530.435 283.59 530.34 282.003 529.435 280.051C529.245 279.654 529.419 279.178 529.816 279.003C530.213 278.828 530.689 278.987 530.864 279.384C532.022 281.876 532.07 283.971 531.022 285.59C528.991 288.781 523.499 288.828 523.26 288.828Z" fill="#200B42"/>
<path d="M456.181 298.749C455.848 298.749 455.546 298.543 455.435 298.225C453.673 293.241 458.419 288.432 464.975 281.765C466.022 280.701 467.133 279.574 468.276 278.384C468.578 278.066 469.086 278.051 469.403 278.368C469.721 278.67 469.736 279.178 469.419 279.495C468.276 280.685 467.165 281.812 466.117 282.876C459.959 289.13 455.514 293.638 456.943 297.686C457.086 298.098 456.879 298.559 456.451 298.701C456.355 298.733 456.276 298.749 456.181 298.749Z" fill="#200B42"/>
<path d="M461.846 302.687C460.687 302.687 459.672 302.497 458.798 302.116C457.227 301.433 456.116 300.147 455.449 298.227C455.306 297.814 455.513 297.354 455.941 297.211C456.354 297.068 456.814 297.274 456.957 297.703C457.497 299.211 458.291 300.163 459.449 300.671C461.592 301.608 465.1 301.052 469.846 298.989C470.243 298.814 470.719 299.005 470.894 299.401C471.068 299.798 470.878 300.275 470.481 300.449C466.973 301.941 464.132 302.687 461.846 302.687Z" fill="#200B42"/>
<path d="M470.133 300.495C469.831 300.495 469.53 300.321 469.403 300.019C469.228 299.622 469.419 299.146 469.816 298.972C473.355 297.432 475.625 295.654 477.625 294.083C480.927 291.479 483.546 289.432 489.482 290.892C489.911 291.003 490.165 291.432 490.07 291.86C489.959 292.289 489.53 292.543 489.117 292.448C483.927 291.178 481.816 292.829 478.609 295.352C476.641 296.908 474.181 298.829 470.451 300.448C470.355 300.479 470.244 300.495 470.133 300.495Z" fill="#200B42"/>
<path d="M229.735 75.7508C221.544 87.1001 211.766 107.084 212.624 141.465C213.497 175.862 202.147 270.307 185.401 298.149C168.655 325.99 193.512 371.514 268.624 367.594C343.735 363.657 357.783 330.355 348.053 304.705C338.323 279.054 312.005 235.72 315.767 137.1C317.799 83.8778 307.465 71.5921 282.64 61.7666C257.814 51.9411 235.782 67.3698 229.735 75.7508Z" fill="#A861EB"/>
<path d="M317.656 197.56C317.259 197.56 316.926 197.258 316.878 196.846C314.656 176.02 314.212 153.226 315.561 129.099C315.593 128.655 315.942 128.337 316.402 128.353C316.847 128.385 317.18 128.75 317.148 129.194C315.815 153.242 316.259 175.941 318.466 196.687C318.513 197.115 318.196 197.512 317.767 197.56C317.72 197.56 317.688 197.56 317.656 197.56Z" fill="#200B42"/>
<path d="M207.671 209.324C207.624 209.324 207.592 209.324 207.544 209.324C207.116 209.261 206.798 208.864 206.862 208.435C211.243 176.404 213.592 140.356 212.56 120.752C212.544 120.308 212.878 119.943 213.306 119.911C213.798 119.911 214.116 120.229 214.147 120.657C215.179 140.34 212.83 176.515 208.433 208.626C208.385 209.039 208.052 209.324 207.671 209.324Z" fill="#200B42"/>
<path d="M285.243 19.4485C278.132 17.6072 273.751 -1.26595 255.83 0.0673885C237.91 1.40073 210.878 9.55952 208.592 26.3691C206.306 43.1788 221.354 76.1155 251.672 71.3694C287.243 65.798 307.767 50.2899 306.037 36.4962C304.132 21.4009 291.529 21.0834 285.243 19.4485Z" fill="#A861EB"/>
<path d="M260.1 41.3532C257.846 41.3532 256.132 40.496 256.036 40.4325C255.639 40.2262 255.497 39.75 255.687 39.369C255.893 38.9881 256.37 38.8293 256.751 39.0198C256.782 39.0357 259.83 40.5436 262.767 39.1944C263.655 38.7976 264.179 38.242 264.386 37.496C264.909 35.6388 263.306 33.242 263.29 33.2261C263.052 32.861 263.132 32.369 263.497 32.1309C263.862 31.8769 264.354 31.9722 264.592 32.3372C264.671 32.4642 266.624 35.3531 265.909 37.9246C265.576 39.1309 264.735 40.0516 263.417 40.6547C262.274 41.1627 261.132 41.3532 260.1 41.3532Z" fill="#200B42"/>
<path d="M277.449 42.195C275.195 42.195 273.481 41.3378 273.386 41.2743C272.989 41.068 272.846 40.5918 273.037 40.2108C273.243 39.8299 273.719 39.6711 274.1 39.8616C274.132 39.8775 277.18 41.3854 280.116 40.0362C281.005 39.6394 281.529 39.0838 281.735 38.3378C282.259 36.4806 280.656 34.0838 280.64 34.0679C280.402 33.7028 280.481 33.2108 280.846 32.9727C281.211 32.7187 281.703 32.814 281.942 33.179C282.021 33.306 283.973 36.1949 283.259 38.7664C282.926 39.9727 282.084 40.8934 280.767 41.4965C279.624 42.0203 278.481 42.195 277.449 42.195Z" fill="#200B42"/>
<path d="M275.305 31.0675C273.162 31.0675 271.13 30.2897 271.004 30.2421C270.591 30.0833 270.4 29.623 270.543 29.2103C270.686 28.7976 271.162 28.5913 271.575 28.75C272.654 29.1627 275.797 30.004 277.464 28.9722C278.273 28.4643 278.718 27.8928 278.813 27.2103C279.004 25.7817 277.623 24.3214 277.607 24.3055C277.305 23.9881 277.321 23.4801 277.638 23.1785C277.956 22.8769 278.464 22.8928 278.765 23.2103C278.845 23.2897 280.67 25.2262 280.385 27.4008C280.242 28.5754 279.543 29.5595 278.305 30.3214C277.432 30.877 276.353 31.0675 275.305 31.0675Z" fill="#200B42"/>
<path d="M212.496 15.3211C210.814 14.3687 209.052 14.1306 205.814 18.2259C202.702 22.1624 205.147 26.0672 205.147 26.0672C205.147 26.0672 204.115 26.6863 203.655 28.8291C203.147 31.2736 205.544 36.4641 207.718 36.7339C209.893 37.0038 211.496 36.6704 211.496 36.6704C211.496 36.6704 212.925 38.099 214.814 38.7657C217.956 39.8768 221.607 38.6546 223.052 36.6704C224.337 34.9085 224.004 32.9561 224.004 32.9561C224.004 32.9561 228.528 32.5434 230.56 29.3053C232.592 26.0672 230.718 22.3212 228.068 20.3846C225.845 18.7656 223.671 19.4322 223.671 19.4322C223.671 19.4322 224.147 15.4798 220.433 13.3211C217.115 11.4163 213.449 12.4163 212.496 15.3211Z" fill="#200B42"/>
<path d="M215.783 33.8933C206.909 34.0044 205.671 19.5758 213.973 17.9091C223.751 16.2266 226.021 33.687 215.783 33.8933ZM214.894 19.4329C208.64 19.798 208.163 30.4647 214.259 32.0679C222.64 34.4648 223.243 19.0202 214.894 19.4329Z" fill="#A861EB"/>
</svg>
