<svg width="1440" height="2005" viewBox="0 0 1440 2005" fill="none" xmlns="http://www.w3.org/2000/svg">
<ellipse opacity="0.01" cx="725" cy="928" rx="1223" ry="600" fill="#EFEFEF"/>
<ellipse opacity="0.02" cx="575" cy="1091" rx="1727" ry="914" fill="white"/>
<path fill-rule="evenodd" clip-rule="evenodd" d="M1150.5 0C1144.15 0 1139 5.14873 1139 11.5C1139 17.8513 1144.15 23 1150.5 23C1156.85 23 1162 17.8513 1162 11.5C1162 5.14873 1156.85 0 1150.5 0ZM462.646 96.5809L461.913 91.7838C461.752 90.7387 460.247 90.7387 460.087 91.7838L459.354 96.5809C459.292 96.9805 458.979 97.2936 458.581 97.3541L453.784 98.0874C452.739 98.2481 452.739 99.7533 453.784 99.9126L458.581 100.646C458.981 100.708 459.294 101.021 459.354 101.419L460.087 106.216C460.248 107.261 461.753 107.261 461.913 106.216L462.646 101.419C462.708 101.019 463.021 100.706 463.419 100.646L468.216 99.9126C469.261 99.7519 469.261 98.2467 468.216 98.0874L463.419 97.3541C463.019 97.2923 462.706 96.9791 462.646 96.5809ZM275.808 365.104L272.216 357.762C271.718 356.746 270.281 356.746 269.784 357.762L266.192 365.106L258.162 366.283C257.05 366.446 256.607 367.825 257.411 368.616L263.222 374.329L261.85 382.398C261.661 383.516 262.822 384.367 263.817 383.84L271 380.029L278.183 383.84C279.178 384.367 280.339 383.516 280.15 382.398L278.778 374.329L284.589 368.614C285.393 367.823 284.95 366.444 283.838 366.281L275.808 365.104ZM1334.81 519.104L1331.22 511.762C1330.72 510.746 1329.28 510.746 1328.78 511.762L1325.19 519.106L1317.16 520.283C1316.05 520.446 1315.61 521.825 1316.41 522.616L1322.22 528.329L1320.85 536.398C1320.66 537.516 1321.82 538.367 1322.82 537.84L1330 534.029L1337.18 537.84C1338.18 538.367 1339.34 537.516 1339.15 536.398L1337.78 528.329L1343.59 522.614C1344.39 521.823 1343.95 520.444 1342.84 520.281L1334.81 519.104ZM141.913 582.784L142.646 587.581C142.706 587.979 143.019 588.292 143.419 588.354L148.216 589.087C149.261 589.247 149.261 590.752 148.216 590.913L143.419 591.646C143.021 591.706 142.708 592.019 142.646 592.419L141.913 597.216C141.753 598.261 140.248 598.261 140.087 597.216L139.354 592.419C139.294 592.021 138.981 591.708 138.581 591.646L133.784 590.913C132.739 590.753 132.739 589.248 133.784 589.087L138.581 588.354C138.979 588.294 139.292 587.981 139.354 587.581L140.087 582.784C140.247 581.739 141.752 581.739 141.913 582.784ZM999.913 555.784L1000.65 560.581C1000.71 560.979 1001.02 561.292 1001.42 561.354L1006.22 562.087C1007.26 562.247 1007.26 563.752 1006.22 563.913L1001.42 564.646C1001.02 564.706 1000.71 565.019 1000.65 565.419L999.913 570.216C999.753 571.261 998.248 571.261 998.087 570.216L997.354 565.419C997.294 565.021 996.981 564.708 996.581 564.646L991.784 563.913C990.739 563.753 990.739 562.248 991.784 562.087L996.581 561.354C996.979 561.294 997.292 560.981 997.354 560.581L998.087 555.784C998.247 554.739 999.752 554.739 999.913 555.784Z" fill="#1E244A"/>
</svg>
