<svg width="931" height="530" viewBox="0 0 931 530" fill="none" xmlns="http://www.w3.org/2000/svg">
<path d="M727.625 456.819C779.259 456.819 888.008 451.372 924.926 341.245C943.431 286.064 921.878 225.335 829.355 181.135C736.092 136.57 749.103 105.98 705.271 65.9266C649.773 15.2289 543.726 -10.777 378.482 4.21914C164.985 23.6104 160.035 141.769 114.89 177.952C40.5095 237.572 -11.0649 273.39 2.03619 358.388C15.1373 443.385 90.9971 458.308 263.636 456.804C436.29 455.329 727.625 456.819 727.625 456.819Z" fill="#5765D1"/>
<path d="M896.789 220.456C894.102 213.374 880.609 215.228 874.828 216.717C869.047 218.221 855.176 221.945 819.329 213.374C783.497 204.788 630.51 186.9 599.296 185.411C599.296 185.411 547.269 109.116 510.275 78.2187C495.242 65.6611 468.647 45.2331 438.596 72.0713C425.993 83.3148 417.405 91.2874 411.654 96.7485C406.206 93.4631 399.67 90.7471 392.35 88.6299C367.295 81.3873 306.03 103.757 288.296 106.736C270.576 109.73 234.261 114.577 222.745 107.116C211.228 99.6543 186.55 122.024 174.808 146.818C163.065 171.612 149.179 236.109 156.892 297.247C164.605 358.399 194.278 471.359 196.965 481.42C199.667 491.481 196.965 505.659 191.954 512.362C186.958 519.078 195.048 520.568 200.059 518.334C200.059 518.334 196.965 528.774 204.285 529.139C211.621 529.519 220.481 516.844 227.031 498.577C227.031 498.577 228.948 515.34 237.823 513.486C246.683 511.617 248.992 507.514 244.751 497.453C240.51 487.392 231.65 450.844 234.351 425.495C237.053 400.146 236.283 273.387 229.34 224.924C229.34 224.924 266.727 234.984 289.458 256.245C289.458 256.245 414.703 231.261 553.82 236.109C692.936 240.957 821.261 261.458 821.261 261.458C821.261 261.458 825.88 275.621 840.913 270.409C855.946 265.196 891.778 247.673 890.238 238.343C890.238 238.343 897.181 234.619 894.102 228.282C894.102 228.282 899.491 227.537 896.789 220.456ZM483.681 149.622L521.309 181.147C498.834 181.074 476.692 181.746 457.373 182.666L483.681 149.622Z" fill="#80C5FF"/>
<path d="M388.593 217.024H333.683C331.494 217.024 329.729 215.316 329.729 213.198V199.283C329.729 197.165 331.494 195.457 333.683 195.457H388.593C390.782 195.457 392.548 197.165 392.548 199.283V213.198C392.548 215.316 390.782 217.024 388.593 217.024Z" fill="#212640"/>
<path d="M388.593 213.182H333.683C331.494 213.182 329.729 211.473 329.729 209.356V199.295C329.729 197.178 331.494 195.47 333.683 195.47H388.593C390.782 195.47 392.548 197.178 392.548 199.295V209.356C392.548 211.459 390.782 213.182 388.593 213.182Z" fill="#212640"/>
<path d="M388.594 213.913H333.684C333.262 213.913 332.93 213.592 332.93 213.183C332.93 212.774 333.262 212.453 333.684 212.453H388.594C389.017 212.453 389.349 212.774 389.349 213.183C389.349 213.592 389.017 213.913 388.594 213.913Z" fill="#97D6D4"/>
<path d="M890.236 239.07C889.904 239.07 889.603 238.851 889.512 238.53C889.255 237.581 888.727 236.924 887.882 236.5C885.18 235.157 880.441 236.865 880.395 236.88C880.003 237.026 879.565 236.836 879.43 236.457C879.294 236.077 879.475 235.653 879.867 235.522C880.094 235.449 885.286 233.565 888.591 235.201C889.814 235.814 890.614 236.807 890.976 238.15C891.082 238.545 890.84 238.939 890.433 239.041C890.372 239.056 890.297 239.07 890.236 239.07Z" fill="#2D72AC"/>
<path d="M894.1 229.013C893.814 229.013 893.542 228.852 893.421 228.589C892.078 225.844 883.142 226.37 881.211 226.925C880.818 227.041 880.395 226.822 880.275 226.443C880.154 226.063 880.38 225.654 880.773 225.537C882.373 225.07 892.787 223.917 894.78 227.976C894.961 228.341 894.795 228.779 894.417 228.954C894.327 228.983 894.206 229.013 894.1 229.013Z" fill="#2D72AC"/>
<path d="M411.655 96.751C424.892 104.694 431.85 115.996 428.575 130.291C423.956 150.486 378.48 186.523 378.48 186.523C378.48 186.523 380.532 214.223 377.453 217.202C374.374 220.181 369.997 220.078 369.997 220.078C369.997 220.078 373.846 222.312 372.307 227.54C370.767 232.767 361.137 229.409 357.273 219.334C353.41 209.258 354.511 196.526 354.511 196.526L341.093 195.474C341.093 195.474 343.403 188.392 354.194 182.8C354.194 182.8 355.523 152.559 358.994 139.14L329.154 171.615C329.154 171.615 294.862 160.43 270.199 128.744" fill="#80C5FF"/>
<path d="M368.88 230.708C364.88 230.708 359.266 226.605 356.579 219.596C353.198 210.762 353.545 200.088 353.711 197.211L341.033 196.219C340.806 196.204 340.595 196.087 340.474 195.897C340.354 195.707 340.308 195.474 340.384 195.269C340.474 194.977 342.859 187.998 353.47 182.361C353.636 178.93 354.858 155.085 357.636 141.739L329.728 172.111C329.532 172.33 329.214 172.418 328.928 172.315C328.581 172.198 294.122 160.692 269.61 129.196C269.354 128.875 269.429 128.422 269.761 128.174C270.093 127.926 270.576 127.999 270.818 128.32C293.503 157.465 324.762 169.293 328.958 170.782L358.466 138.673C358.692 138.424 359.069 138.351 359.386 138.512C359.688 138.673 359.854 139.008 359.764 139.33C356.353 152.53 354.994 182.537 354.994 182.843C354.979 183.106 354.828 183.34 354.602 183.457C346.436 187.691 343.236 192.831 342.24 194.846L354.617 195.824C354.813 195.839 354.994 195.926 355.13 196.073C355.266 196.219 355.326 196.408 355.311 196.598C355.296 196.73 354.285 209.302 358.028 219.085C360.533 225.612 365.65 229.35 369.076 229.248C369.997 229.219 371.174 228.854 371.627 227.335C373.001 222.706 369.68 220.72 369.65 220.706C369.363 220.531 369.212 220.195 369.318 219.874C369.408 219.552 369.725 219.333 370.057 219.348C370.088 219.348 374.148 219.406 376.955 216.69C379.023 214.69 378.555 197.153 377.77 186.581C377.755 186.348 377.861 186.114 378.042 185.968C378.495 185.603 423.368 149.858 427.881 130.145C430.884 117.018 425.149 105.702 411.293 97.3785C410.946 97.1595 410.825 96.7214 411.051 96.371C411.278 96.0351 411.746 95.9329 412.093 96.1373C426.537 104.811 432.514 116.668 429.345 130.452C424.877 150.018 383.596 183.413 379.295 186.844C379.687 192.291 381.106 214.734 378.012 217.712C375.974 219.684 373.453 220.399 371.793 220.662C372.895 221.932 374.102 224.254 373.076 227.729C372.548 229.54 371.099 230.621 369.137 230.694C369.031 230.708 368.956 230.708 368.88 230.708Z" fill="#2D72AC"/>
<path d="M369.998 220.806C369.907 220.806 369.817 220.792 369.711 220.748C362.632 218.003 364.912 199.356 365.198 197.239C365.259 196.845 365.621 196.553 366.044 196.611C366.451 196.669 366.753 197.034 366.693 197.429C365.968 202.875 365.183 217.433 370.27 219.405C370.662 219.551 370.843 219.974 370.692 220.354C370.587 220.631 370.3 220.806 369.998 220.806Z" fill="#2D72AC"/>
<path d="M457.374 183.395C457.087 183.395 456.83 183.249 456.709 183.001C456.574 182.753 456.604 182.446 456.785 182.213L483.093 149.169C483.214 149.008 483.41 148.906 483.621 148.891C483.817 148.862 484.029 148.935 484.195 149.066L521.823 180.592C522.064 180.796 522.14 181.117 522.034 181.395C521.928 181.687 521.642 181.862 521.325 181.862C501.446 181.775 479.938 182.315 457.434 183.381C457.404 183.395 457.389 183.395 457.374 183.395ZM483.787 150.673L458.958 181.848C480.135 180.869 500.405 180.329 519.272 180.402L483.787 150.673Z" fill="#2D72AC"/>
<path d="M599.297 186.142C599.267 186.142 599.237 186.142 599.191 186.142C583.992 184.171 554.711 181.878 521.958 181.878C521.732 181.878 521.52 181.878 521.309 181.878H520.026C500.42 181.893 484.934 181.908 457.403 183.397C456.966 183.455 456.634 183.105 456.603 182.711C456.573 182.302 456.905 181.966 457.313 181.937C484.874 180.447 500.39 180.433 520.011 180.418H521.294C554.319 180.389 584.038 182.696 599.388 184.682C599.795 184.74 600.097 185.105 600.037 185.5C599.991 185.879 599.674 186.142 599.297 186.142Z" fill="#2D72AC"/>
<path d="M394.658 187.634C394.28 187.634 393.948 187.356 393.903 186.977C393.858 186.568 394.159 186.217 394.582 186.174C394.839 186.144 421.403 183.618 457.341 181.939C457.809 181.881 458.111 182.231 458.126 182.625C458.141 183.034 457.824 183.37 457.416 183.385C421.524 185.064 395.005 187.59 394.748 187.619C394.703 187.634 394.688 187.634 394.658 187.634Z" fill="#2D72AC"/>
<path d="M200.059 519.066C199.787 519.066 199.53 518.935 199.395 518.687C199.198 518.336 199.334 517.884 199.696 517.694C206.488 514.131 211.047 503.209 212.405 494.55C212.466 494.155 212.843 493.878 213.265 493.936C213.673 493.995 213.96 494.375 213.899 494.769C212.481 503.764 207.666 515.182 200.421 518.979C200.3 519.037 200.179 519.066 200.059 519.066Z" fill="#2D72AC"/>
<path d="M227.034 499.306C226.671 499.306 226.354 499.057 226.294 498.692C225.69 495.319 227.849 489.435 227.939 489.172C228.075 488.792 228.513 488.588 228.905 488.734C229.298 488.865 229.509 489.289 229.358 489.668C229.343 489.727 227.245 495.451 227.788 498.444C227.864 498.838 227.577 499.218 227.169 499.291C227.124 499.306 227.079 499.306 227.034 499.306Z" fill="#2D72AC"/>
<path d="M337.336 272.41C327.449 272.41 319.042 271.666 316.054 270.118C314.892 269.519 314.831 268.672 315.148 268.074C315.767 266.935 318.907 265.737 323.344 264.642C313.382 262.744 304.975 260.262 302.53 258.071C298.817 254.757 288.78 253.326 277.173 251.661C268.826 250.464 259.378 249.106 250.941 246.813C235.259 242.535 227.5 210.922 221.84 187.851C220.12 180.842 218.641 174.782 217.222 170.781C211.381 154.252 191.94 137.27 191.744 137.095C191.427 136.832 191.412 136.365 191.684 136.058C191.97 135.751 192.438 135.737 192.755 136C192.952 136.175 212.679 153.405 218.656 170.299C220.09 174.359 221.584 180.448 223.32 187.5C228.572 208.936 236.526 241.338 251.363 245.397C259.71 247.675 269.113 249.018 277.399 250.201C289.263 251.895 299.511 253.37 303.556 256.991C306.107 259.269 315.903 261.912 327.012 263.81C340.46 261.036 360.987 259.254 365.379 261.503C366.647 262.16 367.055 263.211 366.436 264.336C365.681 265.737 363.719 266.672 360.429 267.212C352.746 268.482 339.162 267.373 327.012 265.299C321.155 266.526 317.11 267.811 316.522 268.672C316.567 268.701 316.643 268.76 316.748 268.818C323.963 272.542 366.602 271.213 378.767 265.81C380.337 265.109 381.243 264.394 381.227 263.839C381.197 262.32 376.065 260.32 371.945 258.714C365.862 256.348 360.112 254.1 360.746 250.931C361.41 247.602 369.062 247.573 378.767 247.558C387.914 247.529 399.279 247.5 401 243.82C404.456 236.402 398.615 215.551 396.864 213.901C394.781 213.813 392.97 213.93 392.94 213.93C392.487 213.959 392.17 213.652 392.14 213.244C392.11 212.835 392.427 212.499 392.849 212.47C392.925 212.47 394.842 212.353 397.076 212.44C397.679 212.47 398.087 212.981 398.374 213.433C400.758 217.186 405.815 237.074 402.389 244.419C400.26 248.96 389.348 248.989 378.782 249.018C371.598 249.033 362.662 249.062 362.24 251.208C361.847 253.194 367.764 255.516 372.519 257.37C377.967 259.502 382.692 261.342 382.752 263.81C382.782 265.036 381.695 266.132 379.416 267.139C371.643 270.6 352.701 272.41 337.336 272.41ZM331.253 264.496C342.181 266.117 353.606 266.891 360.202 265.796C363.613 265.226 364.76 264.336 365.123 263.678C365.304 263.357 365.213 263.24 365.168 263.182C364.338 261.985 358.089 261.313 345.999 262.481C340.762 262.978 335.69 263.708 331.253 264.496Z" fill="#0F1141"/>
<path d="M230.461 107.823C245.615 103.851 249.555 88.8257 241.253 76.6039C231.805 62.7176 214.191 62.776 204.637 74.4575C193.95 87.5262 201.271 115.46 230.461 107.823Z" fill="#212640"/>
<path d="M213.541 72.321C206.552 72.5985 197.36 57.1643 181.422 63.1218C165.498 69.094 143.145 83.506 145.71 98.911C148.276 114.316 171.067 139.285 197.345 126.99C228.181 112.578 242.565 93.4353 237.162 81.7538C231.275 68.9772 219.714 72.0728 213.541 72.321Z" fill="#80C5FF"/>
<path d="M175.519 107.366C175.519 107.366 156.501 86.4857 162.931 78.5422C169.361 70.5842 188.092 61.7793 188.092 61.7793C188.092 61.7793 186.477 58.7567 179.534 61.1806C172.591 63.6045 150.147 75.8117 150.343 85.5073C150.539 95.203 159.943 107.366 165.753 113.28C171.353 118.946 181.043 113.105 175.519 107.366Z" fill="#212640"/>
<path d="M182.524 145.522C197.678 141.55 201.617 126.525 193.316 114.303C183.867 100.417 166.253 100.475 156.699 112.157C146.013 125.225 153.333 153.159 182.524 145.522Z" fill="#212640"/>
<path d="M179.824 136.572C179.824 136.572 184.292 133.14 180.987 123.62C178.194 115.589 162.542 102.666 154.814 114.961" stroke="#97D6D4" stroke-miterlimit="10" stroke-linecap="round" stroke-linejoin="round"/>
<path d="M195.669 93.1466C194.054 93.1466 192.846 92.7231 192.756 92.6939C192.363 92.5479 192.167 92.139 192.303 91.7594C192.454 91.3797 192.891 91.1899 193.269 91.3213C193.299 91.3359 196.348 92.3727 198.974 90.8249C199.759 90.3576 200.197 89.7881 200.317 89.0872C200.604 87.335 198.823 85.32 198.808 85.3054C198.536 84.9987 198.566 84.546 198.883 84.2686C199.2 84.0058 199.668 84.035 199.94 84.3416C200.031 84.4438 202.189 86.8824 201.812 89.3063C201.63 90.4452 200.936 91.3651 199.774 92.066C198.37 92.9129 196.906 93.1466 195.669 93.1466Z" fill="#212640"/>
<path d="M212.151 92.0499C210.536 92.0499 209.328 91.6264 209.238 91.5972C208.845 91.4512 208.649 91.0423 208.785 90.6627C208.936 90.283 209.359 90.0932 209.751 90.2246C209.781 90.2392 212.83 91.276 215.456 89.7282C216.241 89.2609 216.679 88.6915 216.8 87.9906C217.087 86.2383 215.305 84.2233 215.29 84.2087C215.019 83.902 215.049 83.4494 215.366 83.1719C215.683 82.9091 216.151 82.9383 216.422 83.245C216.513 83.3472 218.671 85.7857 218.294 88.2096C218.113 89.3485 217.419 90.2684 216.256 90.9693C214.853 91.8016 213.373 92.0499 212.151 92.0499Z" fill="#212640"/>
<path d="M208.753 82.105C207.184 82.105 205.855 81.7838 205.75 81.7545C205.342 81.6523 205.101 81.2581 205.206 80.8639C205.312 80.4696 205.72 80.236 206.127 80.3382C207.184 80.601 210.263 81.0245 211.712 79.9001C212.421 79.3453 212.783 78.7758 212.783 78.1333C212.798 76.8191 211.334 75.6218 211.319 75.6072C211.002 75.3443 210.957 74.8917 211.214 74.585C211.485 74.2784 211.953 74.2346 212.27 74.4828C212.346 74.5558 214.293 76.1183 214.278 78.1333C214.262 79.2139 213.719 80.1921 212.648 81.0245C211.591 81.8714 210.082 82.105 208.753 82.105Z" fill="#212640"/>
</svg>
