<svg width="1440" height="1080" viewBox="0 0 1440 1080" fill="none" xmlns="http://www.w3.org/2000/svg">
<path opacity="0.11" fill-rule="evenodd" clip-rule="evenodd" d="M2389.09 2351.26C2362.08 2323.49 2328.51 2299.27 2293.43 2299.15C2260.48 2299.03 2229.33 2322.2 2205.57 2349.17C2098.64 2470.49 1960.93 2464.01 1851.35 2351.26C1824.35 2323.49 1790.76 2299.27 1755.7 2299.15C1722.74 2299.03 1691.6 2322.2 1667.83 2349.17C1560.89 2470.49 1423.19 2464.01 1313.59 2351.26C1286.59 2323.49 1253.04 2299.27 1217.96 2299.15C1185 2299.03 1153.87 2322.2 1130.1 2349.17C1023.17 2470.49 885.442 2464.01 775.855 2351.26C749.563 2323.49 715.291 2299.27 680.226 2299.15C647.255 2299.03 616.125 2322.2 592.356 2349.17C485.839 2470.49 347.722 2464.01 238.118 2351.26C211.132 2323.49 177.547 2299.27 142.471 2299.15C109.522 2299.03 78.385 2322.2 54.6206 2349.17C-52.3176 2470.49 -190.027 2464.01 -299.609 2351.26C-326.608 2323.49 -360.191 2299.27 -395.256 2299.15C-428.214 2299.03 -459.342 2322.2 -483.119 2349.17C-590.052 2470.49 -727.761 2464.01 -837.348 2351.26C-864.349 2323.49 -897.93 2299.27 -932.998 2299.15C-965.953 2299.03 -997.09 2322.2 -1020.85 2349.17C-1047.92 2379.87 -1076.96 2402.37 -1107 2417.03V2416.41V2279.54C-1000.21 2159.36 -863.017 2166.14 -753.764 2278.51C-726.76 2306.29 -692.702 2330.52 -658.111 2330.63C-625.162 2330.76 -594.025 2307.58 -570.261 2280.62C-463.322 2159.92 -325.621 2165.78 -216.025 2278.51C-189.031 2306.29 -155.456 2330.52 -120.38 2330.64C-87.4297 2330.76 -56.2839 2307.58 -32.5298 2280.62C74.4178 2159.92 212.118 2165.78 321.722 2278.51C348.709 2306.29 382.292 2330.52 417.369 2330.64C450.318 2330.76 481.533 2307.58 505.22 2280.62C612.166 2159.92 749.87 2165.78 859.693 2278.51C886.456 2306.29 920.029 2330.52 955.267 2330.63C988.336 2330.76 1019.19 2307.58 1043.23 2280.62C1149.91 2159.92 1287.75 2165.78 1397.19 2278.51C1424.19 2306.29 1457.97 2330.52 1492.84 2330.63C1525.8 2330.76 1556.93 2307.58 1580.68 2280.62C1687.65 2159.92 1825.34 2165.78 1934.93 2278.51C1961.93 2306.29 1995.51 2330.52 2030.58 2330.64C2063.53 2330.76 2094.67 2307.58 2118.43 2280.62C2225.37 2159.92 2363.07 2165.78 2472.67 2278.51C2499.66 2306.29 2533.23 2330.52 2568.3 2330.64C2601.26 2330.76 2632.41 2307.58 2656.17 2280.62C2657.44 2279.19 2658.71 2277.77 2660 2276.36V2415.64C2571.2 2460.91 2471.81 2436.37 2389.09 2351.26ZM2392.68 2074.93C2365.68 2047.15 2332.26 2022.94 2297.05 2022.8C2264.1 2022.69 2232.95 2046.05 2209.19 2072.83C2102.26 2194.15 1964.54 2187.67 1854.96 2074.93C1827.97 2047.15 1794.38 2022.94 1759.32 2022.8C1726.36 2022.69 1695.21 2046.05 1671.44 2072.83C1564.52 2194.15 1426.82 2187.67 1317.23 2074.93C1290.22 2047.15 1256.64 2022.94 1221.57 2022.8C1188.62 2022.69 1158.14 2046.05 1133.71 2072.83C1026.77 2194.15 889.073 2187.67 779.809 2074.93C752.469 2047.15 718.895 2022.94 684.148 2022.8C651.26 2022.69 619.73 2046.05 596.242 2072.83C489.027 2194.15 351.737 2187.67 241.745 2074.93C214.745 2047.15 181.572 2022.94 146.089 2022.8C113.136 2022.69 81.9984 2046.05 58.2341 2072.83C-48.6995 2194.15 -186.41 2187.67 -296.005 2074.93C-323.004 2047.15 -356.577 2022.94 -391.651 2022.8C-424.601 2022.69 -455.738 2046.05 -479.505 2072.83C-586.448 2194.15 -724.153 2187.67 -833.729 2074.93C-860.728 2047.15 -894.311 2022.94 -929.376 2022.8C-962.338 2022.69 -993.485 2046.05 -1017.24 2072.83C-1045.38 2104.76 -1075.67 2127.75 -1107 2142.36V2141.84V2007.08C-1106.14 2006.14 -1105.23 2005.22 -1104.39 2004.29C-997.07 1882.94 -859.739 1889.44 -750.15 2002.82C-723.154 2029.96 -689.577 2054.16 -654.505 2054.3C-621.55 2054.43 -590.412 2031.24 -566.65 2004.29C-459.704 1882.94 -322.006 1889.44 -212.412 2002.82C-185.413 2029.96 -151.839 2054.16 -116.766 2054.3C-83.8162 2054.43 -52.6792 2031.24 -28.9141 2004.29C78.0321 1882.94 215.732 1889.44 325.328 2002.82C352.314 2029.96 385.897 2054.16 420.973 2054.3C453.923 2054.43 485.069 2031.24 508.826 2004.29C615.759 1882.94 753.476 1889.44 863.071 2002.82C890.589 2029.96 923.653 2054.16 958.716 2054.3C991.666 2054.43 1022.81 2031.24 1046.57 2004.29C1153.7 1882.94 1291.22 1889.44 1400.82 2002.82C1427.8 2029.96 1461.38 2054.16 1496.47 2054.3C1529.4 2054.43 1561.15 2031.24 1584.31 2004.29C1691.25 1882.94 1828.95 1889.44 1939.22 2002.82C1965.53 2029.96 1999.12 2054.16 2034.86 2054.3C2067.15 2054.43 2098.28 2031.24 2122.04 2004.29C2228.98 1882.94 2366.69 1889.44 2476.29 2002.82C2503.29 2029.96 2536.86 2054.16 2571.93 2054.3C2604.87 2054.43 2636.03 2031.24 2659.78 2004.29L2660 2004.05V2141.08C2571.51 2183.9 2474.3 2158.88 2392.68 2074.93ZM2389.09 1789.9C2362.08 1762.14 2328.51 1737.91 2293.43 1737.77C2260.48 1737.66 2229.33 1761.37 2205.57 1787.8C2098.64 1909.12 1960.93 1902.64 1851.35 1789.9C1824.35 1762.14 1790.76 1737.91 1755.7 1737.77C1722.74 1737.66 1691.6 1761.37 1667.83 1787.8C1560.89 1909.12 1423.19 1902.64 1313.59 1789.9C1286.59 1762.14 1253.04 1737.91 1217.96 1737.77C1185 1737.66 1153.87 1761.37 1130.1 1787.8C1023.17 1909.12 885.442 1902.64 775.855 1789.9C749.563 1762.13 715.291 1737.91 680.226 1737.77C647.255 1737.66 616.125 1761.37 592.356 1787.8C485.839 1909.12 347.722 1902.64 238.118 1789.9C211.132 1762.14 177.547 1737.91 142.471 1737.77C109.522 1737.66 78.385 1761.37 54.6206 1787.8C-52.3176 1909.12 -190.027 1902.64 -299.609 1789.9C-326.608 1762.14 -360.191 1737.91 -395.256 1737.77C-428.214 1737.66 -459.342 1761.37 -483.119 1787.8C-590.052 1909.12 -727.761 1902.64 -837.348 1789.9C-864.349 1762.13 -897.93 1737.91 -932.998 1737.77C-965.953 1737.66 -997.09 1761.37 -1020.85 1787.8C-1047.92 1818.51 -1076.96 1841.5 -1107 1855.67V1855.04V1718.17C-1000.21 1598.16 -863.017 1604.78 -753.764 1717.15C-726.76 1744.93 -692.702 1769.13 -658.111 1769.27C-625.162 1769.39 -594.025 1746.53 -570.261 1719.26C-463.322 1597.92 -325.621 1604.42 -216.025 1717.15C-189.031 1744.93 -155.456 1769.13 -120.38 1769.27C-87.4297 1769.4 -56.2839 1746.53 -32.5298 1719.26C74.4178 1597.92 212.118 1604.42 321.722 1717.15C348.709 1744.93 382.292 1769.13 417.369 1769.27C450.318 1769.4 481.533 1746.53 505.22 1719.26C612.166 1597.92 749.87 1604.42 859.693 1717.15C886.456 1744.93 920.029 1769.13 955.267 1769.27C988.336 1769.39 1019.19 1746.53 1043.23 1719.26C1149.91 1597.92 1287.75 1604.42 1397.19 1717.15C1424.19 1744.93 1457.97 1769.13 1492.84 1769.27C1525.8 1769.39 1556.93 1746.53 1580.68 1719.26C1687.65 1597.92 1825.34 1604.42 1934.93 1717.15C1961.93 1744.93 1995.51 1769.13 2030.58 1769.27C2063.53 1769.4 2094.67 1746.53 2118.43 1719.26C2225.37 1597.92 2363.07 1604.42 2472.67 1717.15C2499.66 1744.93 2533.23 1769.13 2568.3 1769.27C2601.26 1769.4 2632.41 1746.53 2656.17 1719.26C2657.44 1717.81 2658.71 1716.41 2660 1715V1854.27C2571.2 1899.55 2471.81 1875.43 2389.09 1789.9ZM2392.68 1513.56C2365.68 1485.8 2332.26 1461.57 2297.05 1461.43C2264.1 1461.3 2232.95 1484.49 2209.19 1511.46C2102.26 1632.79 1964.54 1626.29 1854.96 1513.56C1827.97 1485.8 1794.38 1461.57 1759.32 1461.43C1726.36 1461.3 1695.21 1484.49 1671.44 1511.46C1564.52 1632.78 1426.82 1626.29 1317.23 1513.56C1290.22 1485.8 1256.64 1461.57 1221.57 1461.43C1188.62 1461.3 1158.14 1484.49 1133.71 1511.46C1026.77 1632.78 889.073 1626.29 779.809 1513.56C752.469 1485.8 718.895 1461.57 684.148 1461.43C651.26 1461.3 619.73 1484.49 596.242 1511.46C489.027 1632.79 351.737 1626.29 241.745 1513.56C214.745 1485.8 181.572 1461.57 146.089 1461.43C113.136 1461.3 81.9984 1484.49 58.2341 1511.46C-48.6995 1632.79 -186.41 1626.29 -296.005 1513.56C-323.004 1485.8 -356.577 1461.57 -391.651 1461.43C-424.601 1461.3 -455.738 1484.49 -479.505 1511.46C-586.448 1632.78 -724.153 1626.29 -833.729 1513.56C-860.728 1485.8 -894.311 1461.57 -929.376 1461.43C-962.338 1461.3 -993.485 1484.49 -1017.24 1511.46C-1045.38 1543.4 -1075.67 1566.39 -1107 1581.26V1580.5V1445.71C-1106.14 1444.76 -1105.23 1443.86 -1104.39 1442.91C-997.07 1321.58 -859.739 1328.08 -750.15 1440.81C-723.154 1468.59 -689.577 1492.79 -654.505 1492.93C-621.55 1493.07 -590.412 1469.87 -566.65 1442.91C-459.704 1321.58 -322.006 1328.08 -212.412 1440.81C-185.413 1468.59 -151.839 1492.79 -116.766 1492.93C-83.8162 1493.07 -52.6792 1469.87 -28.9141 1442.91C78.0321 1321.58 215.732 1328.08 325.328 1440.81C352.314 1468.59 385.897 1492.79 420.973 1492.93C453.923 1493.07 485.069 1469.87 508.826 1442.91C615.759 1321.58 753.476 1328.08 863.071 1440.81C890.589 1468.59 923.653 1492.79 958.716 1492.93C991.666 1493.07 1022.81 1469.87 1046.57 1442.91C1153.7 1321.58 1291.22 1328.08 1400.82 1440.81C1427.8 1468.59 1461.38 1492.79 1496.47 1492.93C1529.4 1493.07 1561.15 1469.87 1584.31 1442.91C1691.25 1321.58 1828.95 1328.08 1939.22 1440.81C1965.53 1468.59 1999.12 1492.79 2034.86 1492.93C2067.15 1493.07 2098.28 1469.87 2122.04 1442.91C2228.98 1321.58 2366.69 1328.08 2476.29 1440.81C2503.29 1468.59 2536.86 1492.79 2571.93 1492.93C2604.87 1493.07 2636.03 1469.87 2659.78 1442.91L2660 1442.67V1579.72C2571.51 1622.52 2474.3 1597.52 2392.68 1513.56ZM2389.09 1228.54C2362.08 1200.77 2328.51 1176.55 2293.43 1176.41C2260.48 1176.29 2229.33 1199.46 2205.57 1226.43C2098.64 1347.98 1960.93 1341.44 1851.35 1228.54C1824.35 1200.77 1790.76 1176.55 1755.7 1176.41C1722.74 1176.29 1691.6 1199.46 1667.83 1226.43C1560.89 1347.98 1423.19 1341.44 1313.59 1228.54C1286.59 1200.77 1253.04 1176.55 1217.96 1176.41C1185 1176.29 1153.87 1199.46 1130.1 1226.43C1023.17 1347.98 885.442 1341.44 775.855 1228.54C749.563 1200.77 715.291 1176.55 680.226 1176.41C647.255 1176.29 616.125 1199.46 592.356 1226.43C485.839 1347.98 347.722 1341.44 238.118 1228.54C211.119 1200.77 177.547 1176.55 142.471 1176.41C109.522 1176.29 78.385 1199.46 54.6206 1226.43C-52.3176 1347.98 -190.027 1341.44 -299.609 1228.54C-326.608 1200.77 -360.191 1176.55 -395.256 1176.41C-428.214 1176.29 -459.342 1199.46 -483.119 1226.43C-590.052 1347.98 -727.761 1341.44 -837.348 1228.54C-864.349 1200.77 -897.93 1176.55 -932.998 1176.41C-965.953 1176.29 -997.09 1199.46 -1020.85 1226.43C-1047.92 1257.15 -1076.96 1279.62 -1107 1294.44V1293.68V1156.8C-1000.21 1036.64 -863.017 1043.4 -753.764 1155.79C-726.76 1183.56 -692.702 1207.77 -658.111 1207.9C-625.162 1208.04 -594.025 1184.84 -570.261 1157.88C-463.322 1036.56 -325.621 1043.06 -216.025 1155.79C-189.031 1183.56 -155.456 1207.77 -120.38 1207.9C-87.4297 1208.04 -56.2839 1184.84 -32.5298 1157.88C74.4178 1036.56 212.118 1043.06 321.722 1155.79C348.709 1183.56 382.292 1207.77 417.357 1207.9C450.318 1208.04 481.533 1184.84 505.22 1157.88C612.166 1036.56 749.87 1043.06 859.693 1155.79C886.456 1183.56 920.029 1207.77 955.267 1207.9C988.336 1208.04 1019.19 1184.84 1043.23 1157.88C1149.91 1036.56 1287.75 1043.06 1397.19 1155.79C1424.19 1183.56 1457.97 1207.77 1492.84 1207.9C1525.8 1208.04 1556.93 1184.84 1580.68 1157.88C1687.65 1036.56 1825.34 1043.06 1934.93 1155.79C1961.93 1183.56 1995.51 1207.77 2030.58 1207.9C2063.53 1208.04 2094.67 1184.84 2118.43 1157.88C2225.37 1036.56 2363.07 1043.06 2472.67 1155.79C2499.66 1183.56 2533.23 1207.77 2568.3 1207.9C2601.26 1208.04 2632.41 1184.84 2656.17 1157.88C2657.44 1156.46 2658.71 1155.56 2660 1153.65V1292.91C2571.2 1338.17 2471.81 1313.64 2389.09 1228.54ZM2392.68 952.192C2365.68 924.423 2332.26 900.207 2297.05 900.074C2264.1 900.501 2232.95 923.122 2209.19 950.092C2102.26 1071.42 1964.54 1064.93 1854.96 952.192C1827.97 924.423 1794.38 900.207 1759.32 900.074C1726.36 900.501 1695.21 923.122 1671.44 950.092C1564.52 1071.42 1426.82 1064.93 1317.23 952.192C1290.22 924.423 1256.64 900.207 1221.57 900.074C1188.62 900.501 1158.14 923.122 1133.71 950.092C1026.77 1071.42 889.073 1064.93 779.809 952.192C752.469 924.423 718.895 900.207 684.148 900.074C651.26 900.501 619.73 923.122 596.242 950.092C489.027 1071.42 351.737 1064.93 241.745 952.192C214.745 924.423 181.572 900.207 146.089 900.074C113.136 900.501 81.9984 923.122 58.2341 950.092C-48.6995 1071.42 -186.41 1064.93 -296.005 952.192C-323.004 924.423 -356.577 900.207 -391.651 900.074C-424.601 900.501 -455.738 923.122 -479.505 950.092C-586.448 1071.42 -724.153 1064.93 -833.729 952.192C-860.728 924.423 -894.311 900.207 -929.376 900.074C-962.338 900.501 -993.485 923.122 -1017.24 950.092C-1045.38 982.021 -1075.67 1005.02 -1107 1019.63V1019.13V884.347C-1106.14 883.401 -1105.23 882.495 -1104.39 881.539C-997.07 760.222 -859.739 766.713 -750.15 879.436C-723.154 907.604 -689.577 931.434 -654.505 931.557C-621.55 931.693 -590.412 908.509 -566.65 881.539C-459.704 760.222 -322.006 766.713 -212.412 879.436C-185.413 907.604 -151.839 931.434 -116.766 931.557C-83.8162 931.693 -52.6792 908.509 -28.9141 881.539C78.0321 760.222 215.732 766.713 325.328 879.436C352.314 907.604 385.897 931.434 420.973 931.557C453.923 931.693 485.061 908.509 508.826 881.539C615.759 760.222 753.476 766.713 863.071 879.436C890.589 907.604 923.653 931.434 958.716 931.557C991.666 931.693 1022.81 908.509 1046.57 881.539C1153.7 760.222 1291.22 766.713 1400.82 879.436C1427.8 907.604 1461.38 931.434 1496.47 931.557C1529.4 931.693 1561.15 908.509 1584.31 881.539C1691.25 760.222 1828.95 766.713 1939.22 879.436C1965.53 907.604 1999.12 931.434 2034.86 931.557C2067.15 931.693 2098.28 908.509 2122.04 881.539C2228.98 760.222 2366.69 766.713 2476.29 879.436C2503.29 907.604 2536.86 931.434 2571.93 931.557C2604.87 931.693 2636.03 908.509 2659.78 881.539L2660 881.777V1018.36C2571.51 1061.16 2474.3 1036.15 2392.68 952.192ZM2389.09 667.174C2362.08 639.393 2328.51 615.18 2293.43 615.044C2260.48 614.92 2229.33 638.104 2205.57 665.497C2098.64 786.401 1960.93 779.9 1851.35 667.174C1824.35 639.393 1790.76 615.18 1755.7 615.044C1722.74 614.92 1691.6 638.104 1667.83 665.497C1560.89 786.401 1423.19 779.9 1313.59 667.174C1286.59 639.393 1253.04 615.18 1217.96 615.044C1185 614.92 1153.87 638.104 1130.1 665.497C1023.17 786.401 885.442 779.9 775.855 667.174C749.563 639.393 715.291 615.18 680.226 615.044C647.255 614.92 616.125 638.104 592.356 665.497C485.839 786.401 347.722 779.9 238.118 667.174C211.119 639.393 177.547 615.18 142.471 615.044C109.522 614.92 78.385 638.104 54.6206 665.497C-52.3176 786.401 -190.027 779.9 -299.609 667.174C-326.608 639.393 -360.191 615.18 -395.256 615.044C-428.214 614.92 -459.342 638.104 -483.119 665.497C-590.052 786.401 -727.761 779.9 -837.348 667.174C-864.349 639.393 -897.93 615.18 -932.998 615.044C-965.953 614.92 -997.09 638.104 -1020.85 665.497C-1047.92 695.778 -1076.96 718.266 -1107 732.941V732.327V595.963C-1000.21 475.277 -863.017 482.372 -753.764 594.431C-726.76 622.19 -692.702 646.644 -658.111 646.539C-625.162 646.675 -594.025 623.479 -570.261 596.521C-463.322 475.192 -325.621 481.683 -216.025 594.431C-189.031 622.19 -155.456 646.644 -120.38 646.539C-87.4297 646.675 -56.2839 623.479 -32.5298 596.521C74.4178 475.192 212.118 481.683 321.722 594.431C348.709 622.19 382.292 646.644 417.357 646.539C450.318 646.675 481.533 623.479 505.22 596.521C612.166 475.192 749.87 481.683 859.693 594.431C886.456 622.19 920.029 646.644 955.267 646.539C988.336 646.675 1019.19 623.479 1043.23 596.521C1149.91 475.192 1287.75 481.683 1397.19 594.431C1424.19 622.19 1457.97 646.644 1492.84 646.539C1525.8 646.675 1556.93 623.479 1580.68 596.521C1687.65 475.192 1825.34 481.683 1934.93 594.431C1961.93 622.19 1995.51 646.644 2030.58 646.539C2063.53 646.675 2094.67 623.479 2118.43 596.521C2225.37 475.192 2363.07 481.683 2472.67 594.431C2499.66 622.19 2533.23 646.644 2568.3 646.539C2601.26 646.675 2632.41 623.479 2656.17 596.521C2657.44 595.074 2658.71 593.681 2660 592.266V731.558C2571.2 776.917 2471.81 752.275 2389.09 667.174ZM2392.68 390.832C2365.68 363.051 2332.26 338.835 2297.05 339.214C2264.1 338.588 2232.95 361.759 2209.19 388.72C2102.26 510.056 1964.54 503.555 1854.96 390.832C1827.97 363.051 1794.38 338.835 1759.32 339.214C1726.36 338.588 1695.21 361.759 1671.44 388.72C1564.52 510.056 1426.82 503.555 1317.23 390.832C1290.22 363.051 1256.64 338.835 1221.57 339.214C1188.62 338.588 1158.14 361.759 1133.71 388.72C1026.77 510.056 889.073 503.555 779.809 390.832C752.469 363.051 718.895 338.835 684.148 339.214C651.26 338.588 619.73 361.759 596.242 388.72C489.027 510.056 351.737 503.555 241.745 390.832C214.745 363.051 181.572 338.835 146.089 339.214C113.136 338.588 81.9984 361.759 58.2341 388.72C-48.6995 510.056 -186.41 503.555 -296.005 390.832C-323.004 363.051 -356.577 338.835 -391.651 339.214C-424.601 338.588 -455.738 361.759 -479.505 388.72C-586.448 510.056 -724.153 503.555 -833.729 390.832C-860.728 363.051 -894.311 338.835 -929.376 339.214C-962.338 338.588 -993.485 361.759 -1017.24 388.72C-1045.38 420.649 -1075.67 443.636 -1107 458.261V458.271V322.975C-1106.14 322.037 -1105.23 321.122 -1104.39 320.175C-997.07 198.85 -859.739 205.35 -750.15 318.086C-723.154 345.845 -689.577 370.061 -654.505 370.194C-621.55 370.33 -590.412 347.137 -566.65 320.175C-459.704 198.85 -322.006 205.35 -212.412 318.086C-185.413 345.845 -151.839 370.061 -116.766 370.194C-83.8162 370.33 -52.6792 347.137 -28.9141 320.175C78.0321 198.85 215.732 205.35 325.328 318.086C352.314 345.845 385.897 370.061 420.973 370.194C453.923 370.33 485.061 347.137 508.826 320.175C615.759 198.85 753.476 205.35 863.071 318.086C890.589 345.845 923.653 370.061 958.716 370.194C991.666 370.33 1022.81 347.137 1046.57 320.175C1153.7 198.85 1291.22 205.35 1400.82 318.086C1427.8 345.845 1461.38 370.061 1496.47 370.194C1529.4 370.33 1561.15 347.137 1584.31 320.175C1691.25 198.85 1828.95 205.35 1939.22 318.086C1965.53 345.845 1999.12 370.061 2034.86 370.194C2067.15 370.33 2098.28 347.137 2122.04 320.175C2228.98 198.85 2366.69 205.35 2476.29 318.086C2503.29 345.845 2536.86 370.061 2571.93 370.194C2604.87 370.33 2636.03 347.137 2659.78 320.175L2660 319.948V456.992C2571.51 499.803 2474.3 475.367 2392.68 390.832ZM2389.09 105.802C2362.08 78.0301 2328.51 53.817 2293.43 53.681C2260.48 53.5579 2229.33 76.7505 2205.57 103.703C2098.64 225.029 1960.93 218.538 1851.35 105.802C1824.35 78.0301 1790.76 53.817 1755.7 53.681C1722.74 53.5579 1691.6 76.7505 1667.83 103.703C1560.89 225.029 1423.19 218.538 1313.59 105.802C1286.59 78.0301 1253.04 53.817 1217.96 53.681C1185 53.5579 1153.87 76.7505 1130.1 103.703C1023.17 225.029 885.442 218.538 775.855 105.802C749.563 78.0301 715.291 53.817 680.226 53.681C647.255 53.5579 616.125 76.7505 592.356 103.703C485.839 225.029 347.722 218.538 238.118 105.802C211.119 78.0301 177.547 53.817 142.471 53.681C109.522 53.5579 78.385 76.7505 54.6206 103.703C-52.3176 225.029 -190.027 218.538 -299.609 105.802C-326.608 78.0301 -360.191 53.817 -395.256 53.681C-428.214 53.5579 -459.342 76.7505 -483.119 103.703C-590.052 225.029 -727.761 218.538 -837.348 105.802C-864.349 78.0301 -897.93 53.817 -932.998 53.681C-965.953 53.5579 -997.09 76.7505 -1020.85 103.703C-1047.92 134.406 -1076.96 156.892 -1107 171.578V170.955V34.0655C-1000.21 -86.0953 -863.017 -79.3257 -753.764 33.0685C-726.76 60.8271 -692.702 85.0402 -658.111 85.1665C-625.162 85.3026 -594.025 62.1188 -570.261 35.1482C-463.322 -86.1682 -325.621 -79.6805 -216.025 33.0685C-189.031 60.8271 -155.456 85.0402 -120.38 85.1665C-87.4297 85.3026 -56.2839 62.1188 -32.5298 35.1482C74.4178 -86.1682 212.118 -79.6805 321.722 33.0685C348.709 60.8271 382.292 85.0402 417.357 85.1665C450.318 85.3026 481.533 62.1188 505.22 35.1482C612.166 -86.1682 749.87 -79.6805 859.693 33.0685C886.456 60.8271 920.029 85.0402 955.267 85.1665C988.336 85.3026 1019.19 62.1188 1043.23 35.1482C1149.91 -86.1682 1287.75 -79.6805 1397.19 33.0685C1424.19 60.8271 1457.97 85.0402 1492.84 85.1665C1525.8 85.3026 1556.93 62.1188 1580.68 35.1482C1687.65 -86.1682 1825.34 -79.6805 1934.93 33.0685C1961.93 60.8271 1995.51 85.0402 2030.58 85.1665C2063.53 85.3026 2094.67 62.1188 2118.43 35.1482C2225.37 -86.1682 2363.07 -79.6805 2472.67 33.0685C2499.66 60.8271 2533.23 85.0402 2568.3 85.1665C2601.26 85.3026 2632.41 62.1188 2656.17 35.1482C2657.44 33.7107 2658.71 32.2991 2660 31.3961V170.184C2571.2 215.438 2471.81 190.902 2389.09 105.802ZM2392.68 -170.541C2365.68 -198.312 2332.26 -222.081 2297.05 -222.661C2264.1 -222.775 2232.95 -199.601 2209.19 -172.643C2102.26 -51.3039 1964.54 -57.8038 1854.96 -170.541C1827.97 -198.312 1794.38 -222.081 1759.32 -222.661C1726.36 -222.775 1695.21 -199.601 1671.44 -172.643C1564.52 -51.3039 1426.82 -57.8038 1317.23 -170.541C1290.22 -198.312 1256.64 -222.081 1221.57 -222.661C1188.62 -222.775 1158.14 -199.601 1133.71 -172.643C1026.77 -51.3039 889.073 -57.8038 779.809 -170.541C752.469 -198.312 718.895 -222.081 684.148 -222.661C651.26 -222.775 619.73 -199.601 596.242 -172.643C489.027 -51.3039 351.737 -57.8038 241.745 -170.541C214.745 -198.312 181.572 -222.081 146.089 -222.661C113.136 -222.775 81.9984 -199.601 58.2341 -172.643C-48.6995 -51.3039 -186.41 -57.8038 -296.005 -170.541C-323.004 -198.312 -356.577 -222.081 -391.651 -222.661C-424.601 -222.775 -455.738 -199.601 -479.505 -172.643C-586.448 -51.3039 -724.153 -57.8038 -833.729 -170.541C-860.728 -198.312 -894.311 -222.081 -929.376 -222.661C-962.338 -222.775 -993.485 -199.601 -1017.24 -172.643C-1045.38 -140.002 -1075.67 -117.714 -1107 -103.101V-103.601V-238.388C-1106.14 -239.325 -1105.23 -240.24 -1104.39 -241.056C-997.07 -362.512 -859.739 -356.021 -750.15 -243.287C-723.154 -215.527 -689.577 -191.302 -654.505 -191.166C-621.55 -191.033 -590.412 -214.226 -566.65 -241.056C-459.704 -362.512 -322.006 -356.021 -212.412 -243.287C-185.413 -215.527 -151.839 -191.302 -116.766 -191.166C-83.8162 -191.033 -52.6792 -214.226 -28.9141 -241.056C78.0321 -362.512 215.732 -356.021 325.328 -243.287C352.314 -215.527 385.897 -191.302 420.973 -191.166C453.923 -191.033 485.061 -214.226 508.826 -241.056C615.759 -362.512 753.476 -356.021 863.071 -243.287C890.589 -215.527 923.653 -191.302 958.716 -191.166C991.666 -191.033 1022.81 -214.226 1046.57 -241.056C1153.7 -362.512 1291.22 -356.021 1400.82 -243.287C1427.8 -215.527 1461.38 -191.302 1496.47 -191.166C1529.4 -191.033 1561.15 -214.226 1584.31 -241.056C1691.25 -362.512 1828.95 -356.021 1939.22 -243.287C1965.53 -215.527 1999.12 -191.302 2034.86 -191.166C2067.15 -191.033 2098.28 -214.226 2122.04 -241.056C2228.98 -362.512 2366.69 -356.021 2476.29 -243.287C2503.29 -215.527 2536.86 -191.302 2571.93 -191.166C2604.87 -191.033 2636.03 -214.226 2659.78 -241.056L2660 -241.425V-104.371C2571.51 -61.5591 2474.3 -86.5739 2392.68 -170.541Z" fill="#1E244A"/>
</svg>
